<?xml version="1.0" encoding="utf-8"?>
<!-- Generator: Adobe Illustrator 27.5.0, SVG Export Plug-In . SVG Version: 6.00 Build 0)  -->
<svg version="1.1" xmlns="http://www.w3.org/2000/svg" xmlns:xlink="http://www.w3.org/1999/xlink" x="0px" y="0px"
	 viewBox="0 0 500 500" style="enable-background:new 0 0 500 500;" xml:space="preserve">
<g id="Background_Complete">
	<g>
		<rect y="382.398" style="fill:#EBEBEB;" width="500" height="0.25"/>
		<rect x="416.779" y="398.494" style="fill:#EBEBEB;" width="33.122" height="0.25"/>
		<rect x="322.527" y="401.208" style="fill:#EBEBEB;" width="8.693" height="0.25"/>
		<rect x="396.586" y="389.208" style="fill:#EBEBEB;" width="19.192" height="0.25"/>
		<rect x="52.459" y="390.888" style="fill:#EBEBEB;" width="43.193" height="0.25"/>
		<rect x="104.556" y="390.888" style="fill:#EBEBEB;" width="6.333" height="0.25"/>
		<rect x="131.471" y="395.111" style="fill:#EBEBEB;" width="93.676" height="0.25"/>
		<path style="fill:#EBEBEB;" d="M237.014,337.8H43.915c-3.147,0-5.708-2.561-5.708-5.708V60.66c0-3.147,2.561-5.708,5.708-5.708
			h193.099c3.146,0,5.707,2.561,5.707,5.708v271.432C242.721,335.239,240.16,337.8,237.014,337.8z M43.915,55.203
			c-3.01,0-5.458,2.448-5.458,5.458v271.432c0,3.01,2.448,5.458,5.458,5.458h193.099c3.009,0,5.457-2.448,5.457-5.458V60.66
			c0-3.009-2.448-5.458-5.457-5.458H43.915z"/>
		<path style="fill:#EBEBEB;" d="M453.31,337.8H260.212c-3.147,0-5.707-2.561-5.707-5.708V60.66c0-3.147,2.561-5.708,5.707-5.708
			H453.31c3.148,0,5.708,2.561,5.708,5.708v271.432C459.019,335.239,456.458,337.8,453.31,337.8z M260.212,55.203
			c-3.009,0-5.457,2.448-5.457,5.458v271.432c0,3.01,2.448,5.458,5.457,5.458H453.31c3.01,0,5.458-2.448,5.458-5.458V60.66
			c0-3.009-2.448-5.458-5.458-5.458H260.212z"/>
	</g>
	<g>
		
			<path style="fill:none;stroke:#E0E0E0;stroke-width:1.9163;stroke-linecap:round;stroke-linejoin:round;stroke-miterlimit:10;" d="
			M80.962,162.078c-13.416,35.391,51.243,92.715,144.42,128.037c93.177,35.322,179.588,35.267,193.004-0.124"/>
		
			<path style="fill:none;stroke:#E0E0E0;stroke-width:1.9163;stroke-linecap:round;stroke-linejoin:round;stroke-miterlimit:10;" d="
			M142.331,375.852c30.422,22.517,103.142-24.158,162.426-104.252s82.681-163.277,52.259-185.795"/>
		<g>
			<g>
				<path style="fill:#EBEBEB;" d="M389.332,242.486c0.033-4.664-0.161-9.267-0.573-13.81
					c-3.511-38.905-22.913-73.279-51.692-96.524c-23.854-19.269-54.159-30.896-87.207-31.13c-0.856-0.006-1.713-0.002-2.559,0.002
					c-17.656,0.195-34.531,3.645-50.052,9.778h-0.01c-47.443,18.773-82.29,62.627-88.02,115.334
					c-0.508,4.722-0.789,9.508-0.824,14.357c-0.083,11.711,1.27,23.091,3.896,33.975c7.758,32.259,26.659,60.222,52.442,79.535
					c23.186,17.355,51.932,27.733,83.133,27.954c16.715,0.119,32.77-2.688,47.665-7.937
					C349.82,354.904,388.901,303.351,389.332,242.486z"/>
			</g>
			<g>
				<path style="opacity:0.4;fill:#F5F5F5;enable-background:new    ;" d="M290.95,343.817c2.638,0.256,3.824,3.497,4.362,6.139
					c0.797,3.968,1.605,7.936,2.402,11.904c-4.835,2.267-4.433,8.161-2.181,12.16c54.287-19.117,93.367-70.669,93.799-131.534
					c0.033-4.664-0.161-9.267-0.573-13.81c-0.113-0.073-0.236-0.136-0.36-0.199c-3.828-1.809-6.849,1.464-9.736,3.311
					c-0.652,0.418-9.07,4.506-9.179,3.369c0.354,3.674,0.156,7.401-0.586,11.017c-0.056,0.274-0.133,0.574-0.363,0.732
					c-0.548,0.376-1.168-0.381-1.368-1.014c-0.511-1.62-0.73-3.327-1.339-4.913c-0.608-1.586-1.717-3.109-3.337-3.619
					c-1.629-0.513-3.404,0.091-5.095-0.145c-2.063-0.288-3.784-1.82-4.825-3.624c-1.005-1.741-1.472-3.754-1.979-5.67
					c-1.985,4.406-7.018,1.689-9.976,5.251c-0.95,1.144-2.092,2.793-3.471,2.239c-1.312-0.527-1.463-2.768-2.867-2.942
					c-0.982-0.122-1.702,0.957-1.847,1.936c-0.145,0.979,0.013,2.026-0.401,2.925c-0.581,1.264-2.344,1.805-3.533,1.085
					c-1.069-0.647-1.482-1.96-2.15-3.016c-0.668-1.056-2.101-1.945-3.107-1.204c-0.237,0.174-0.413,0.42-0.549,0.681
					c-0.975,1.877,0.13,4.154,1.436,5.818c1.306,1.663,2.917,3.327,3.055,5.438c-0.758,0.542-1.958,0.29-2.434-0.511
					c-0.165-0.279-0.258-0.614-0.506-0.823c-0.54-0.454-1.339-0.022-1.931,0.361c-2.787,1.802-6.31,2.427-9.547,1.693
					c-0.241-4.281-0.483-8.562-0.724-12.844c-0.97-0.033-1.551-0.095-1.919-1.09c-3.212,3.127-6.155,6.495-9.695,9.314
					c-0.424,0.338-0.877,0.706-1.021,1.229c-0.15,0.546,0.077,1.123,0.042,1.687c-0.114,1.869-2.619,2.359-4.491,2.31
					c-0.543,0.302-0.231,1.194,0.313,1.496c0.543,0.302,1.223,0.331,1.714,0.713c0.733,0.571,0.746,1.685,0.478,2.575
					c-0.931,3.093-4.713,4.978-7.743,3.858c-0.361-0.133-0.725-0.316-0.94-0.634c-0.474-0.7-0.026-1.626,0.061-2.467
					c0.341-3.316-3.238-2.545-4.888-1.628c-2.238,1.243-3.492,4.542-3.91,6.901c-0.488,2.757-2.572,21.054-8.678,18.525
					c-0.573-0.237-0.987-0.753-1.278-1.301c-0.882-1.661-0.82-3.663-1.466-5.429c-0.646-1.766-2.656-3.377-4.299-2.462
					c-0.659,0.367-1.079,1.057-1.709,1.472c-1.755,1.156-4.252-0.232-6.165,0.639c-0.879,0.401-1.489,1.22-2.286,1.766
					c-0.797,0.546-2.048,0.721-2.61-0.065c-0.63-0.88,0.108-2.208-0.408-3.159c-0.542-0.999-2.227-0.792-2.799,0.19
					c-0.572,0.982-0.227,2.28,0.478,3.171c0.369,0.466,0.845,0.894,0.967,1.476c0.22,1.043-0.769,1.909-1.645,2.516
					c-1.393,0.964-2.785,1.928-4.178,2.892c0.091,0.964,1.031,1.636,1.964,1.898c0.932,0.262,1.929,0.251,2.855,0.558
					c4.458,1.487,4.441,8.104,10.29,6.805c-0.348-1.757,1.526-3.546,3.264-3.118c2.144,0.528,3.53,3.583,5.654,2.979
					c0.739-0.21,1.302-0.853,2.049-1.03c2.064-0.49,3.074,2.682,3.654,4.032c1.925,4.478-1.07,5.02-0.949,9.017
					c0.055,1.829,1.409,3.373,1.745,5.172c0.309,1.656-0.272,3.368-0.047,5.037c0.617,4.588,6.689,1.806,9.379,1.274
					c-1.463,2.6,0.712,5.763,3.084,7.565c3.643,2.768,3.019,2.531,3.473,6.526c0.12,1.055,0.726,2.125,1.727,2.48
					c1.742,0.618,3.438-1.104,5.278-1.284c0.883-0.086,1.779,0.191,2.654,0.044c2.296-0.388,3.096-3.203,4.593-4.987
					c1.31-1.561,3.419-2.412,5.445-2.198c0.164,1.178,0.169,2.379,0.015,3.559c-1.286,0.794-2.573,1.588-3.859,2.383
					c-1.138,0.702-2.317,1.445-3.02,2.582c-0.394,0.637-0.638,1.394-1.208,1.879c-1.135,0.964-2.835,0.382-4.321,0.286
					c-3.603-0.234-9.467,2.011-12.938,3.151c-3.699,1.215-4.993,3.831-8.404,5.004c-0.601,0.207-0.736,1.078-0.382,1.606
					c0.355,0.528,1.01,0.763,1.636,0.874c1.453,0.257,2.991,0.003,4.285-0.706c-1.697,0.93,3.263,5.026,4.161,5.228
					c1.471,0.331,3.449-0.778,4.946-0.854c3.712-0.188,5.863,0.55,3.425,4.586c-0.932,1.543-2.02,3.51-0.996,4.995
					c0.982-0.408,2.167,0.182,2.717,1.093c0.55,0.91,0.591,2.04,0.471,3.097c-0.081,0.712-0.254,1.465-0.775,1.958
					c-0.279,0.264-0.645,0.441-0.858,0.76c-0.691,1.04,0.729,2.179,1.895,2.627"/>
				<path style="opacity:0.4;fill:#F5F5F5;enable-background:new    ;" d="M168.026,182.905c1.155-0.866,2.798-0.168,4.001,0.629
					c1.203,0.797,2.616,1.728,3.973,1.237c0.026-1.674,0.053-3.348,0.079-5.022c0.005-0.315,0.025-0.666,0.253-0.883
					c0.231-0.22,0.589-0.219,0.908-0.204c1.077,0.049,2.154,0.098,3.232,0.148c0.899,0.988-1.605,2.194-1.249,3.481
					c0.157,0.569,0.8,0.816,1.32,1.095c4.436,2.38,1.622,7.329-0.388,10.017c-2.333,3.12-2.178,7.373-1.927,11.264
					c0.093,1.383,0.258,2.932,1.324,3.837c1.036,0.895,2.564,0.833,3.892,1.225c2.296,0.666,3.922,2.7,6.071,3.757
					c7.51,3.696,12.46-4.342,10.014-10.675c-1.268-3.282-1.811-2.659-1.085-6.167c0.303-1.463-0.182-3.189,1.34-4.187
					c1.613-1.058,3.94,0.078,4.069,2.042c0.126,1.928,0.568,3.76-0.224,5.57c2.221-0.825,4.866-0.301,7.294-0.301
					c-0.346,2.237,2.54,4.208,4.497,3.07c-0.065-1.096,0.232-2.605,1.33-2.596c0.32,0.002,0.618,0.156,0.894,0.319
					c1.152,0.679,2.17,1.584,3.384,2.152c1.866,0.87,7.227,0.458,8.065,2.974c0.147,0.442,0.145,0.926,0.32,1.358
					c0.373,0.921,1.542,1.371,2.491,1.076c0.949-0.294,1.63-1.204,1.815-2.181c0.123-0.651,0.054-1.332,0.224-1.972
					c0.903-3.4,4.394-0.738,5.953-1.654c0.748-0.439,3.829-6.235,3.897-6.937c1.483,1.846,3.701,3.403,6.168,3.287
					c2.701-0.126,3.853-2.274,4.461-4.898c0.641-2.771,0.674-6.073,1.28-8.08c0.326-1.078,0.605-2.387-0.158-3.216
					c-0.954-1.036-2.985-0.64-3.678-1.866c-0.22-0.389-0.238-0.855-0.314-1.296c-0.444-2.584-3.34-4.456-5.879-3.799
					c-0.83-0.544-0.844-1.723-0.892-2.714c-0.049-0.991-0.468-2.217-1.458-2.287c-1.137-0.081-1.654,1.408-1.635,2.548
					c0.019,1.163,0.2,2.323,0.536,3.436c0.252,0.831,0.591,1.722,0.296,2.539c-0.223,0.618-0.767,1.055-1.299,1.439
					c-1.284,0.924-2.745,1.756-4.328,1.745c-1.582-0.011-3.248-1.161-3.31-2.742c-0.017-0.424,0.078-0.857-0.021-1.27
					c-0.255-1.061-1.61-1.427-2.691-1.281c-1.081,0.146-2.159,0.598-3.228,0.381c-1.069-0.217-1.958-1.61-1.2-2.395
					c-1.436-0.504-3.491-0.754-4.057,0.659c-0.182,0.454-0.131,0.961-0.14,1.45c-0.055,3.017-3.806,7.372-6.365,4.217
					c-1.683-2.074,1.215-5.847-1.804-7.554c-1.443-0.816-3.402-0.095-4.831-0.938c-0.446-0.529,0.32-1.245,0.99-1.421
					c2.116-0.556,4.506,0.092,6.05,1.642c0.856-1.758-0.466-4.335,1.026-5.598c1.473-1.247,4.308,0.221,5.412-1.362
					c0.316-0.453,0.366-1.034,0.405-1.587c0.195-2.724-0.644-7.722,3.204-8.179c0.466-0.055,0.952-0.02,1.39-0.19
					c1.328-0.517,1.317-2.375,1.07-3.778c-1.446-0.622-2.996,0.449-4.386,1.185c-1.391,0.736-3.598,0.859-4.071-0.641
					c-0.339-1.074,0.503-2.419-0.208-3.292c-0.33-0.405-0.913-0.559-1.192-1c-0.676-1.068,0.967-2.138,1.26-3.368
					c0.402-1.694-1.862-2.783-3.599-2.654c-1.737,0.129-3.68,0.713-5.083-0.32c-0.444-0.327-0.773-0.786-1.186-1.153
					c-1.272-1.127-3.124-1.229-4.822-1.273c-2.711-0.071,3.457-11.221,3.519-11.9c0.466-5.172-4.835-7.926-7.874-11.215
					c-1.587-1.734-2.749-3.786-3.912-5.837c-45.678,18.075-79.456,60.021-87.117,108.575c-0.344,2.177-0.752,4.428-0.768,6.598
					c3.206-0.904,8.193-3.304,11.448-1.353c4.134,2.477,1.142,8.61,5.907,10.423c1.18-0.016,0.839-1.959,1.523-2.921
					c0.38-0.535,1.075-0.714,1.661-1.009c0.586-0.296,1.152-0.928,0.915-1.539c1.031-0.81,2.453,0.223,3.411,1.119
					c1.126,1.053,2.414,2.022,3.923,2.339c3.144,0.661,6.048-1.593,8.88-3.111c2.341-1.255,4.893-2.054,7.428-2.846
					c-1.226,0.073-1.847-1.623-1.375-2.757c0.472-1.134,1.54-1.886,2.322-2.835c1.332-1.617,0.309-3.499,1.422-5.217
					c1.377-2.136,4.03-3.635,4.254-6.161c0.28-3.063-3.111-5.016-5.962-6.151c1.511-3.456,5.603-5.831,5.599-9.608
					c0-1.455-0.65-2.811-1.281-4.116c-1.292-2.671-2.583-5.343-3.875-8.004c-0.539-1.108-1.087-2.329-0.759-3.514
					c0.371-1.401,1.801-2.206,3.085-2.847c1.398-0.702,2.796-1.404,4.194-2.106c0.58-0.285,1.212-0.579,1.84-0.472
					c0.68,0.118,1.182,0.658,1.601,1.208c2.28,2.957,3.367,6.803,2.99,10.525c4.958-0.739,9.828-2.087,14.454-4.025
					c-0.514,2.865,0.668,6.027-0.219,8.71"/>
				<path style="opacity:0.4;fill:#F5F5F5;enable-background:new    ;" d="M284.169,206.346c1.334,0.958,2.405,2.421,2.488,4.061
					c0.051,1.012-0.272,2.004-0.337,3.015c-0.065,1.011,0.22,2.165,1.107,2.654c1.133,0.623,2.5-0.152,3.554-0.901
					c0.856-0.609,1.778-1.314,1.988-2.343c0.154-0.753-0.113-1.532-0.046-2.297c0.132-1.515,1.474-2.581,2.544-3.661
					s1.98-2.781,1.137-4.046c-0.556-0.833-1.682-1.124-2.278-1.929c-1.454-1.962,1.176-4.707-0.029-6.493
					c-1.427-2.116-4.965-1.034-6.923,0.036c-1.982,1.083-3.423,3.089-4.84,4.789C278.527,204.037,279.927,203.301,284.169,206.346z"
					/>
				<path style="opacity:0.4;fill:#F5F5F5;enable-background:new    ;" d="M336.953,132.111
					c-23.502-20.388-56.301-30.871-87.092-31.089c-0.856-0.006-1.713-0.002-2.559,0.002c-4.063,4.581-6.218,13.258,1.831,14.878
					c0.004,0.878-0.503,1.096-0.946,1.798c-0.696,1.103,0.465,2.491,1.671,2.989c3.953,1.633,8.752,1.538,8.125,6.892
					c-0.749,6.386-3.766,2.322-7.081,4.634c-0.48,0.335-0.761,0.88-1.146,1.321c-1.409,1.619-3.883,1.606-6.024,1.464
					c0.537-1.255-0.297-2.896-1.627-3.203c-0.502-0.116-1.065-0.076-1.482-0.378c-0.896-0.648-0.218-2.178,0.805-2.599
					c1.022-0.421,2.197-0.246,3.259-0.555c1.062-0.309,2.03-1.567,1.386-2.466c-0.269-0.375-0.736-0.55-1.187-0.652
					c-1.891-0.426-3.978,0.153-5.379,1.492c-0.353-1.016-1.451-1.719-2.522-1.614c-1.071,0.104-2.012,1.006-2.162,2.072
					c-0.22,1.558,0.85,3.679-0.544,4.409c1.237-0.324,2.641,0.119,3.469,1.094c3.258,3.84,1.319,13.178,9.906,11.613
					c1.379-0.251,2.699-0.839,4.099-0.913c1.4-0.074,3.004,0.577,3.375,1.93c1.804-2.617,6.43-2.059,7.969-4.84
					c0.724-1.309,0.395-3.109-0.746-4.077c-0.19-0.161-0.408-0.313-0.499-0.544c-0.186-0.471,0.235-0.954,0.303-1.456
					c0.119-0.873-0.826-1.549-0.942-2.423c-0.162-1.217,1.253-1.994,2.441-2.302c1.189-0.308,2.641-0.745,2.882-1.949
					c0.082-0.41-0.006-0.841,0.077-1.251c0.167-0.828,1.009-1.382,1.846-1.49c0.838-0.108,1.677,0.134,2.487,0.373
					c0.552,0.47,0.307,1.402-0.187,1.932c-0.494,0.53-1.178,0.879-1.584,1.479c-0.227,0.336,0.89,7.616,0.341,7.427
					c2.604,0.898,8.162,1.031,7.042,4.921c-0.395,1.373-1.196,2.804-0.687,4.14c-1.83-0.515-3.666-1.008-5.508-1.48
					c-0.448,0.591,0.288,1.399,1.007,1.581c0.719,0.182,1.573,0.156,2.062,0.714c0.343,0.391,0.389,0.954,0.418,1.474
					c0.094,1.692,0.189,3.383,0.283,5.075c0.103,1.836,0.348,3.939,1.868,4.973c1.729,1.177,4.174,0.24,5.627-1.264
					c0.348-0.361,0.731-0.783,1.233-0.785c0.454-0.002,0.822,0.344,1.161,0.646c1.783,1.594,4.277,2.553,6.605,2.003
					c2.328-0.551,4.253-2.892,3.862-5.252c-0.151-0.908-0.544-2.019,0.159-2.615c0.413-0.35,1.118-0.393,1.303-0.901
					c0.232-0.639-0.584-1.1-1.13-1.505c-0.987-0.733-1.34-2.201-0.794-3.302c0.279-0.564,5.355-2.648,6.143-2.264
					c1.808,0.881,1.489,5.728,1.714,7.598c0.087,0.722,0.22,1.527,0.803,1.961c0.911,0.678,2.227-0.027,2.933-0.917
					c0.706-0.889,1.223-2.018,2.246-2.511c0.595-0.287,1.277-0.312,1.937-0.331c1.337-0.039,2.839-0.017,3.781,0.932
					c0.441,0.444,0.699,1.042,1.139,1.487c1.005,1.014,2.681,0.965,4.025,0.484c1.344-0.481,2.555-1.312,3.934-1.681
					c2.935-0.784,6.291,0.607,8.991-0.787c1.305-0.674,2.245-2.536,1.212-3.58c-0.892-0.901-2.827-0.746-3.064-1.991
					c-0.227-1.193,2.697-2.915,3.211-3.959c0.407-0.827-0.483-2.364,0.459-3.896C334.256,133.831,336.121,133.45,336.953,132.111z"
					/>
				<path style="opacity:0.4;fill:#F5F5F5;enable-background:new    ;" d="M164.453,333.255c-1.669-1.119-3.543-1.763-4.124-4.059
					c-0.792-3.127,0.894-4.46,4.004-3.3c0.277,0.103,0.578,0.212,0.859,0.122c0.899-0.287,0.262-1.614-0.324-2.354
					c-1.368-1.729-1.462-4.05-0.753-6.06c0.168-0.477-8.59-0.678-9.554-0.15c-3.376,1.847-1.176,9.048-5.094,7.834
					c-0.265-2.738-0.12-5.572-0.127-8.341c-1.334-0.051-2.668-0.102-4.002-0.153c0.995,0.038,0.404-5.068,0.065-5.626
					c-1.314-2.167-5.372-1.246-5.011-5.341c0.458-5.184,10.495-6.237,9.294-0.29c3.058,1.17,6.633,1.432,9.903,1.336
					c0.075,1.053,0.14,2.116,0.205,3.169c0.76,0.47,1.761,0.549,2.588,0.194c1.587-2.661,1.345-6.305-0.577-8.744
					c1.147-1.756-0.25-4.016-1.59-5.635c3.672-2.688,2.616-9.516-1.697-10.97c-4.323-1.455-9.29,3.349-7.99,7.713
					c-2.107,0.243-4.126,1.168-5.684,2.601c-0.229-5.512-4.382-10.638-9.728-11.997c-2.688-0.69-5.877-0.65-7.709-2.737
					c-0.819-0.924-1.223-2.145-1.98-3.12c-1.718-2.179-4.79-2.624-7.564-2.778c-1.857-0.096-3.714-0.129-5.571-0.101
					c7.758,32.259,26.659,60.222,52.442,79.535c0.98,0.038,1.991,0.024,2.841-0.424c1.574-0.845,2.063-2.833,2.385-4.595
					c1.268-6.853,0.556-11.12-5.02-15.382C164.781,333.481,164.618,333.366,164.453,333.255z"/>
			</g>
			<g>
				<path style="fill:#F5F5F5;enable-background:new    ;" d="M290.95,343.817c2.638,0.256,3.824,3.497,4.362,6.139
					c0.797,3.968,1.605,7.936,2.402,11.904c-4.835,2.267-4.433,8.161-2.181,12.16c54.287-19.117,93.367-70.669,93.799-131.534
					c0.033-4.664-0.161-9.267-0.573-13.81c-0.113-0.073-0.236-0.136-0.36-0.199c-3.828-1.809-6.849,1.464-9.736,3.311
					c-0.652,0.418-9.07,4.506-9.179,3.369c0.354,3.674,0.156,7.401-0.586,11.017c-0.056,0.274-0.133,0.574-0.363,0.732
					c-0.548,0.376-1.168-0.381-1.368-1.014c-0.511-1.62-0.73-3.327-1.339-4.913c-0.608-1.586-1.717-3.109-3.337-3.619
					c-1.629-0.513-3.404,0.091-5.095-0.145c-2.063-0.288-3.784-1.82-4.825-3.624c-1.005-1.741-1.472-3.754-1.979-5.67
					c-1.985,4.406-7.018,1.689-9.976,5.251c-0.95,1.144-2.092,2.793-3.471,2.239c-1.312-0.527-1.463-2.768-2.867-2.942
					c-0.982-0.122-1.702,0.957-1.847,1.936c-0.145,0.979,0.013,2.026-0.401,2.925c-0.581,1.264-2.344,1.805-3.533,1.085
					c-1.069-0.647-1.482-1.96-2.15-3.016c-0.668-1.056-2.101-1.945-3.107-1.204c-0.237,0.174-0.413,0.42-0.549,0.681
					c-0.975,1.877,0.13,4.154,1.436,5.818c1.306,1.663,2.917,3.327,3.055,5.438c-0.758,0.542-1.958,0.29-2.434-0.511
					c-0.165-0.279-0.258-0.614-0.506-0.823c-0.54-0.454-1.339-0.022-1.931,0.361c-2.787,1.802-6.31,2.427-9.547,1.693
					c-0.241-4.281-0.483-8.562-0.724-12.844c-0.97-0.033-1.551-0.095-1.919-1.09c-3.212,3.127-6.155,6.495-9.695,9.314
					c-0.424,0.338-0.877,0.706-1.021,1.229c-0.15,0.546,0.077,1.123,0.042,1.687c-0.114,1.869-2.619,2.359-4.491,2.31
					c-0.543,0.302-0.231,1.194,0.313,1.496c0.543,0.302,1.223,0.331,1.714,0.713c0.733,0.571,0.746,1.685,0.478,2.575
					c-0.931,3.093-4.713,4.978-7.743,3.858c-0.361-0.133-0.725-0.316-0.94-0.634c-0.474-0.7-0.026-1.626,0.061-2.467
					c0.341-3.316-3.238-2.545-4.888-1.628c-2.238,1.243-3.492,4.542-3.91,6.901c-0.488,2.757-2.572,21.054-8.678,18.525
					c-0.573-0.237-0.987-0.753-1.278-1.301c-0.882-1.661-0.82-3.663-1.466-5.429c-0.646-1.766-2.656-3.377-4.299-2.462
					c-0.659,0.367-1.079,1.057-1.709,1.472c-1.755,1.156-4.252-0.232-6.165,0.639c-0.879,0.401-1.489,1.22-2.286,1.766
					c-0.797,0.546-2.048,0.721-2.61-0.065c-0.63-0.88,0.108-2.208-0.408-3.159c-0.542-0.999-2.227-0.792-2.799,0.19
					c-0.572,0.982-0.227,2.28,0.478,3.171c0.369,0.466,0.845,0.894,0.967,1.476c0.22,1.043-0.769,1.909-1.645,2.516
					c-1.393,0.964-2.785,1.928-4.178,2.892c0.091,0.964,1.031,1.636,1.964,1.898c0.932,0.262,1.929,0.251,2.855,0.558
					c4.458,1.487,4.441,8.104,10.29,6.805c-0.348-1.757,1.526-3.546,3.264-3.118c2.144,0.528,3.53,3.583,5.654,2.979
					c0.739-0.21,1.302-0.853,2.049-1.03c2.064-0.49,3.074,2.682,3.654,4.032c1.925,4.478-1.07,5.02-0.949,9.017
					c0.055,1.829,1.409,3.373,1.745,5.172c0.309,1.656-0.272,3.368-0.047,5.037c0.617,4.588,6.689,1.806,9.379,1.274
					c-1.463,2.6,0.712,5.763,3.084,7.565c3.643,2.768,3.019,2.531,3.473,6.526c0.12,1.055,0.726,2.125,1.727,2.48
					c1.742,0.618,3.438-1.104,5.278-1.284c0.883-0.086,1.779,0.191,2.654,0.044c2.296-0.388,3.096-3.203,4.593-4.987
					c1.31-1.561,3.419-2.412,5.445-2.198c0.164,1.178,0.169,2.379,0.015,3.559c-1.286,0.794-2.573,1.588-3.859,2.383
					c-1.138,0.702-2.317,1.445-3.02,2.582c-0.394,0.637-0.638,1.394-1.208,1.879c-1.135,0.964-2.835,0.382-4.321,0.286
					c-3.603-0.234-9.467,2.011-12.938,3.151c-3.699,1.215-4.993,3.831-8.404,5.004c-0.601,0.207-0.736,1.078-0.382,1.606
					c0.355,0.528,1.01,0.763,1.636,0.874c1.453,0.257,2.991,0.003,4.285-0.706c-1.697,0.93,3.263,5.026,4.161,5.228
					c1.471,0.331,3.449-0.778,4.946-0.854c3.712-0.188,5.863,0.55,3.425,4.586c-0.932,1.543-2.02,3.51-0.996,4.995
					c0.982-0.408,2.167,0.182,2.717,1.093c0.55,0.91,0.591,2.04,0.471,3.097c-0.081,0.712-0.254,1.465-0.775,1.958
					c-0.279,0.264-0.645,0.441-0.858,0.76c-0.691,1.04,0.729,2.179,1.895,2.627"/>
				<path style="fill:#F5F5F5;enable-background:new    ;" d="M168.026,182.905c1.155-0.866,2.798-0.168,4.001,0.629
					c1.203,0.797,2.616,1.728,3.973,1.237c0.026-1.674,0.053-3.348,0.079-5.022c0.005-0.315,0.025-0.666,0.253-0.883
					c0.231-0.22,0.589-0.219,0.908-0.204c1.077,0.049,2.154,0.098,3.232,0.148c0.899,0.988-1.605,2.194-1.249,3.481
					c0.157,0.569,0.8,0.816,1.32,1.095c4.436,2.38,1.622,7.329-0.388,10.017c-2.333,3.12-2.178,7.373-1.927,11.264
					c0.093,1.383,0.258,2.932,1.324,3.837c1.036,0.895,2.564,0.833,3.892,1.225c2.296,0.666,3.922,2.7,6.071,3.757
					c7.51,3.696,12.46-4.342,10.014-10.675c-1.268-3.282-1.811-2.659-1.085-6.167c0.303-1.463-0.182-3.189,1.34-4.187
					c1.613-1.058,3.94,0.078,4.069,2.042c0.126,1.928,0.568,3.76-0.224,5.57c2.221-0.825,4.866-0.301,7.294-0.301
					c-0.346,2.237,2.54,4.208,4.497,3.07c-0.065-1.096,0.232-2.605,1.33-2.596c0.32,0.002,0.618,0.156,0.894,0.319
					c1.152,0.679,2.17,1.584,3.384,2.152c1.866,0.87,7.227,0.458,8.065,2.974c0.147,0.442,0.145,0.926,0.32,1.358
					c0.373,0.921,1.542,1.371,2.491,1.076c0.949-0.294,1.63-1.204,1.815-2.181c0.123-0.651,0.054-1.332,0.224-1.972
					c0.903-3.4,4.394-0.738,5.953-1.654c0.748-0.439,3.829-6.235,3.897-6.937c1.483,1.846,3.701,3.403,6.168,3.287
					c2.701-0.126,3.853-2.274,4.461-4.898c0.641-2.771,0.674-6.073,1.28-8.08c0.326-1.078,0.605-2.387-0.158-3.216
					c-0.954-1.036-2.985-0.64-3.678-1.866c-0.22-0.389-0.238-0.855-0.314-1.296c-0.444-2.584-3.34-4.456-5.879-3.799
					c-0.83-0.544-0.844-1.723-0.892-2.714c-0.049-0.991-0.468-2.217-1.458-2.287c-1.137-0.081-1.654,1.408-1.635,2.548
					c0.019,1.163,0.2,2.323,0.536,3.436c0.252,0.831,0.591,1.722,0.296,2.539c-0.223,0.618-0.767,1.055-1.299,1.439
					c-1.284,0.924-2.745,1.756-4.328,1.745c-1.582-0.011-3.248-1.161-3.31-2.742c-0.017-0.424,0.078-0.857-0.021-1.27
					c-0.255-1.061-1.61-1.427-2.691-1.281c-1.081,0.146-2.159,0.598-3.228,0.381c-1.069-0.217-1.958-1.61-1.2-2.395
					c-1.436-0.504-3.491-0.754-4.057,0.659c-0.182,0.454-0.131,0.961-0.14,1.45c-0.055,3.017-3.806,7.372-6.365,4.217
					c-1.683-2.074,1.215-5.847-1.804-7.554c-1.443-0.816-3.402-0.095-4.831-0.938c-0.446-0.529,0.32-1.245,0.99-1.421
					c2.116-0.556,4.506,0.092,6.05,1.642c0.856-1.758-0.466-4.335,1.026-5.598c1.473-1.247,4.308,0.221,5.412-1.362
					c0.316-0.453,0.366-1.034,0.405-1.587c0.195-2.724-0.644-7.722,3.204-8.179c0.466-0.055,0.952-0.02,1.39-0.19
					c1.328-0.517,1.317-2.375,1.07-3.778c-1.446-0.622-2.996,0.449-4.386,1.185c-1.391,0.736-3.598,0.859-4.071-0.641
					c-0.339-1.074,0.503-2.419-0.208-3.292c-0.33-0.405-0.913-0.559-1.192-1c-0.676-1.068,0.967-2.138,1.26-3.368
					c0.402-1.694-1.862-2.783-3.599-2.654c-1.737,0.129-3.68,0.713-5.083-0.32c-0.444-0.327-0.773-0.786-1.186-1.153
					c-1.272-1.127-3.124-1.229-4.822-1.273c-2.711-0.071,3.457-11.221,3.519-11.9c0.466-5.172-4.835-7.926-7.874-11.215
					c-1.587-1.734-2.749-3.786-3.912-5.837c-45.678,18.075-79.456,60.021-87.117,108.575c-0.344,2.177-0.752,4.428-0.768,6.598
					c3.206-0.904,8.193-3.304,11.448-1.353c4.134,2.477,1.142,8.61,5.907,10.423c1.18-0.016,0.839-1.959,1.523-2.921
					c0.38-0.535,1.075-0.714,1.661-1.009c0.586-0.296,1.152-0.928,0.915-1.539c1.031-0.81,2.453,0.223,3.411,1.119
					c1.126,1.053,2.414,2.022,3.923,2.339c3.144,0.661,6.048-1.593,8.88-3.111c2.341-1.255,4.893-2.054,7.428-2.846
					c-1.226,0.073-1.847-1.623-1.375-2.757c0.472-1.134,1.54-1.886,2.322-2.835c1.332-1.617,0.309-3.499,1.422-5.217
					c1.377-2.136,4.03-3.635,4.254-6.161c0.28-3.063-3.111-5.016-5.962-6.151c1.511-3.456,5.603-5.831,5.599-9.608
					c0-1.455-0.65-2.811-1.281-4.116c-1.292-2.671-2.583-5.343-3.875-8.004c-0.539-1.108-1.087-2.329-0.759-3.514
					c0.371-1.401,1.801-2.206,3.085-2.847c1.398-0.702,2.796-1.404,4.194-2.106c0.58-0.285,1.212-0.579,1.84-0.472
					c0.68,0.118,1.182,0.658,1.601,1.208c2.28,2.957,3.367,6.803,2.99,10.525c4.958-0.739,9.828-2.087,14.454-4.025
					c-0.514,2.865,0.668,6.027-0.219,8.71"/>
				<path style="fill:#F5F5F5;enable-background:new    ;" d="M284.169,206.346c1.334,0.958,2.405,2.421,2.488,4.061
					c0.051,1.012-0.272,2.004-0.337,3.015c-0.065,1.011,0.22,2.165,1.107,2.654c1.133,0.623,2.5-0.152,3.554-0.901
					c0.856-0.609,1.778-1.314,1.988-2.343c0.154-0.753-0.113-1.532-0.046-2.297c0.132-1.515,1.474-2.581,2.544-3.661
					s1.98-2.781,1.137-4.046c-0.556-0.833-1.682-1.124-2.278-1.929c-1.454-1.962,1.176-4.707-0.029-6.493
					c-1.427-2.116-4.965-1.034-6.923,0.036c-1.982,1.083-3.423,3.089-4.84,4.789C278.527,204.037,279.927,203.301,284.169,206.346z"
					/>
				<path style="fill:#F5F5F5;enable-background:new    ;" d="M336.953,132.111c-23.502-20.388-56.301-30.871-87.092-31.089
					c-0.856-0.006-1.713-0.002-2.559,0.002c-4.063,4.581-6.218,13.258,1.831,14.878c0.004,0.878-0.503,1.096-0.946,1.798
					c-0.696,1.103,0.465,2.491,1.671,2.989c3.953,1.633,8.752,1.538,8.125,6.892c-0.749,6.386-3.766,2.322-7.081,4.634
					c-0.48,0.335-0.761,0.88-1.146,1.321c-1.409,1.619-3.883,1.606-6.024,1.464c0.537-1.255-0.297-2.896-1.627-3.203
					c-0.502-0.116-1.065-0.076-1.482-0.378c-0.896-0.648-0.218-2.178,0.805-2.599c1.022-0.421,2.197-0.246,3.259-0.555
					c1.062-0.309,2.03-1.567,1.386-2.466c-0.269-0.375-0.736-0.55-1.187-0.652c-1.891-0.426-3.978,0.153-5.379,1.492
					c-0.353-1.016-1.451-1.719-2.522-1.614c-1.071,0.104-2.012,1.006-2.162,2.072c-0.22,1.558,0.85,3.679-0.544,4.409
					c1.237-0.324,2.641,0.119,3.469,1.094c3.258,3.84,1.319,13.178,9.906,11.613c1.379-0.251,2.699-0.839,4.099-0.913
					c1.4-0.074,3.004,0.577,3.375,1.93c1.804-2.617,6.43-2.059,7.969-4.84c0.724-1.309,0.395-3.109-0.746-4.077
					c-0.19-0.161-0.408-0.313-0.499-0.544c-0.186-0.471,0.235-0.954,0.303-1.456c0.119-0.873-0.826-1.549-0.942-2.423
					c-0.162-1.217,1.253-1.994,2.441-2.302c1.189-0.308,2.641-0.745,2.882-1.949c0.082-0.41-0.006-0.841,0.077-1.251
					c0.167-0.828,1.009-1.382,1.846-1.49c0.838-0.108,1.677,0.134,2.487,0.373c0.552,0.47,0.307,1.402-0.187,1.932
					c-0.494,0.53-1.178,0.879-1.584,1.479c-0.227,0.336,0.89,7.616,0.341,7.427c2.604,0.898,8.162,1.031,7.042,4.921
					c-0.395,1.373-1.196,2.804-0.687,4.14c-1.83-0.515-3.666-1.008-5.508-1.48c-0.448,0.591,0.288,1.399,1.007,1.581
					c0.719,0.182,1.573,0.156,2.062,0.714c0.343,0.391,0.389,0.954,0.418,1.474c0.094,1.692,0.189,3.383,0.283,5.075
					c0.103,1.836,0.348,3.939,1.868,4.973c1.729,1.177,4.174,0.24,5.627-1.264c0.348-0.361,0.731-0.783,1.233-0.785
					c0.454-0.002,0.822,0.344,1.161,0.646c1.783,1.594,4.277,2.553,6.605,2.003c2.328-0.551,4.253-2.892,3.862-5.252
					c-0.151-0.908-0.544-2.019,0.159-2.615c0.413-0.35,1.118-0.393,1.303-0.901c0.232-0.639-0.584-1.1-1.13-1.505
					c-0.987-0.733-1.34-2.201-0.794-3.302c0.279-0.564,5.355-2.648,6.143-2.264c1.808,0.881,1.489,5.728,1.714,7.598
					c0.087,0.722,0.22,1.527,0.803,1.961c0.911,0.678,2.227-0.027,2.933-0.917c0.706-0.889,1.223-2.018,2.246-2.511
					c0.595-0.287,1.277-0.312,1.937-0.331c1.337-0.039,2.839-0.017,3.781,0.932c0.441,0.444,0.699,1.042,1.139,1.487
					c1.005,1.014,2.681,0.965,4.025,0.484c1.344-0.481,2.555-1.312,3.934-1.681c2.935-0.784,6.291,0.607,8.991-0.787
					c1.305-0.674,2.245-2.536,1.212-3.58c-0.892-0.901-2.827-0.746-3.064-1.991c-0.227-1.193,2.697-2.915,3.211-3.959
					c0.407-0.827-0.483-2.364,0.459-3.896C334.256,133.831,336.121,133.45,336.953,132.111z"/>
				<path style="fill:#F5F5F5;enable-background:new    ;" d="M164.453,333.255c-1.669-1.119-3.543-1.763-4.124-4.059
					c-0.792-3.127,0.894-4.46,4.004-3.3c0.277,0.103,0.578,0.212,0.859,0.122c0.899-0.287,0.262-1.614-0.324-2.354
					c-1.368-1.729-1.462-4.05-0.753-6.06c0.168-0.477-8.59-0.678-9.554-0.15c-3.376,1.847-1.176,9.048-5.094,7.834
					c-0.265-2.738-0.12-5.572-0.127-8.341c-1.334-0.051-2.668-0.102-4.002-0.153c0.995,0.038,0.404-5.068,0.065-5.626
					c-1.314-2.167-5.372-1.246-5.011-5.341c0.458-5.184,10.495-6.237,9.294-0.29c3.058,1.17,6.633,1.432,9.903,1.336
					c0.075,1.053,0.14,2.116,0.205,3.169c0.76,0.47,1.761,0.549,2.588,0.194c1.587-2.661,1.345-6.305-0.577-8.744
					c1.147-1.756-0.25-4.016-1.59-5.635c3.672-2.688,2.616-9.516-1.697-10.97c-4.323-1.455-9.29,3.349-7.99,7.713
					c-2.107,0.243-4.126,1.168-5.684,2.601c-0.229-5.512-4.382-10.638-9.728-11.997c-2.688-0.69-5.877-0.65-7.709-2.737
					c-0.819-0.924-1.223-2.145-1.98-3.12c-1.718-2.179-4.79-2.624-7.564-2.778c-1.857-0.096-3.714-0.129-5.571-0.101
					c7.758,32.259,26.659,60.222,52.442,79.535c0.98,0.038,1.991,0.024,2.841-0.424c1.574-0.845,2.063-2.833,2.385-4.595
					c1.268-6.853,0.556-11.12-5.02-15.382C164.781,333.481,164.618,333.366,164.453,333.255z"/>
			</g>
		</g>
		<path style="fill:#FAFAFA;" d="M83.25,166.796c0-4.484,3.636-8.12,8.12-8.12c0.811,0,1.593,0.122,2.332,0.344
			c-0.118-0.814-0.182-1.646-0.182-2.493c0-9.497,7.699-17.195,17.195-17.195c1.082,0,2.14,0.105,3.167,0.296
			c2.643-4.325,7.394-7.222,12.834-7.222c8.233,0,14.912,6.615,15.034,14.82c0.084-0.002,0.166-0.013,0.25-0.013
			c7.65,0,13.852,6.202,13.852,13.852c0,7.65-6.202,13.852-13.852,13.852H91.131l0.01-0.011
			C86.764,174.783,83.25,171.204,83.25,166.796z"/>
		<path style="fill:#FAFAFA;" d="M358.221,192.834c0-3.846,3.118-6.964,6.964-6.964c0.696,0,1.366,0.105,2,0.295
			c-0.102-0.698-0.156-1.412-0.156-2.138c0-8.145,6.603-14.748,14.748-14.748c0.928,0,1.836,0.09,2.717,0.254
			c2.267-3.71,6.342-6.194,11.007-6.194c7.062,0,12.79,5.674,12.895,12.711c0.072-0.001,0.142-0.011,0.215-0.011
			c6.561,0,11.88,5.319,11.88,11.88c0,6.561-5.319,11.88-11.88,11.88h-43.63l0.009-0.01
			C361.234,199.684,358.221,196.614,358.221,192.834z"/>
		<path style="fill:#FAFAFA;" d="M200.108,256.281c0-4.485,3.635-8.12,8.12-8.12c0.811,0,1.593,0.122,2.332,0.344
			c-0.118-0.814-0.182-1.646-0.182-2.493c0-9.497,7.699-17.195,17.195-17.195c1.083,0,2.14,0.105,3.168,0.296
			c2.643-4.325,7.394-7.222,12.833-7.222c8.234,0,14.912,6.616,15.035,14.82c0.084-0.002,0.166-0.013,0.25-0.013
			c7.65,0,13.852,6.202,13.852,13.852c0,7.65-6.202,13.852-13.852,13.852h-50.869l0.01-0.011
			C203.621,264.267,200.108,260.688,200.108,256.281z"/>
		<path style="fill:#FAFAFA;" d="M74.735,331.711c0-3.109,2.52-5.629,5.629-5.629c0.562,0,1.104,0.085,1.616,0.238
			c-0.082-0.564-0.126-1.141-0.126-1.728c0-6.584,5.337-11.921,11.921-11.921c0.75,0,1.484,0.073,2.196,0.205
			c1.832-2.998,5.126-5.007,8.897-5.007c5.708,0,10.338,4.586,10.423,10.274c0.058-0.001,0.115-0.009,0.174-0.009
			c5.303,0,9.603,4.299,9.603,9.603c0,5.303-4.299,9.603-9.603,9.603H80.199l0.007-0.008
			C77.171,337.248,74.735,334.767,74.735,331.711z"/>
		<path style="fill:#FAFAFA;" d="M378.177,335.775c0-2.909,2.358-5.266,5.266-5.266c0.526,0,1.033,0.079,1.512,0.223
			c-0.077-0.528-0.118-1.068-0.118-1.617c0-6.159,4.993-11.152,11.152-11.152c0.702,0,1.388,0.068,2.054,0.192
			c1.714-2.805,4.795-4.684,8.323-4.684c5.34,0,9.672,4.291,9.751,9.612c0.055-0.001,0.107-0.008,0.162-0.008
			c4.962,0,8.984,4.022,8.984,8.984s-4.022,8.984-8.984,8.984h-32.993l0.007-0.007C380.456,340.954,378.177,338.633,378.177,335.775
			z"/>
		
			<path style="fill:none;stroke:#E0E0E0;stroke-width:1.9163;stroke-linecap:round;stroke-linejoin:round;stroke-miterlimit:10;" d="
			M418.386,289.991c13.416-35.391-51.243-92.715-144.42-128.038c-93.177-35.322-179.588-35.267-193.004,0.124"/>
		
			<path style="fill:none;stroke:#E0E0E0;stroke-width:1.9163;stroke-linecap:round;stroke-linejoin:round;stroke-miterlimit:10;" d="
			M357.017,85.805c-30.422-22.517-103.142,24.158-162.426,104.252c-59.284,80.094-82.681,163.277-52.259,185.795"/>
	</g>
</g>
<g id="Background_Simple" style="display:none;">
	<g style="display:inline;">
		<path style="fill:#407BFF;" d="M94.434,103.384c27.919-59.449,127.059-51.062,165.317-9.255
			c38.258,41.806,50.696,68.599,85.208,52.983c34.512-15.616,78.518-11.44,81.042,38.164
			c2.525,49.604-37.913,108.263-102.09,125.615c-64.177,17.352-64.161,78.759-149.1,66.368c-46.31-6.756-47.365-56.86-40.825-98.301
			S62.055,172.328,94.434,103.384z"/>
		<path style="opacity:0.9;fill:#FFFFFF;" d="M94.434,103.384c27.919-59.449,127.059-51.062,165.317-9.255
			c38.258,41.806,50.696,68.599,85.208,52.983c34.512-15.616,78.518-11.44,81.042,38.164
			c2.525,49.604-37.913,108.263-102.09,125.615c-64.177,17.352-64.161,78.759-149.1,66.368c-46.31-6.756-47.365-56.86-40.825-98.301
			S62.055,172.328,94.434,103.384z"/>
	</g>
</g>
<g id="Shadow_1_">
	<ellipse id="_x3C_Path_x3E__359_" style="fill:#F5F5F5;" cx="250" cy="416.238" rx="193.889" ry="11.323"/>
</g>
<g id="Book">
	<g>
		<g>
			<path style="fill:#263238;" d="M272.188,164.777c0,0-88.454-13.787-135.413-6.962v186.928c0,0,98.318-8.5,130.168,2.225
				l5.245-3.633V164.777z"/>
			<path style="opacity:0.6;fill:#FFFFFF;" d="M272.188,164.777c0,0-88.454-13.787-135.413-6.962v186.928
				c0,0,98.318-8.5,130.168,2.225l5.245-3.633V164.777z"/>
			<path style="fill:#263238;" d="M272.188,164.777c0,0,88.454-13.787,135.413-6.962v186.928c0,0-98.318-8.5-130.168,2.225
				l-5.245-3.633V164.777z"/>
			<path style="opacity:0.6;fill:#FFFFFF;" d="M272.188,164.777c0,0,88.454-13.787,135.413-6.962v186.928
				c0,0-98.318-8.5-130.168,2.225l-5.245-3.633V164.777z"/>
			<path style="fill:#407BFF;" d="M272.188,343.935V165.377c0,0-47.971-26.516-131.347-10.265v185.603
				C140.841,340.716,212.708,328.701,272.188,343.935z"/>
			<path style="opacity:0.8;fill:#FFFFFF;" d="M272.188,343.935V165.377c0,0-47.971-26.516-131.347-10.265v185.603
				C140.841,340.716,212.708,328.701,272.188,343.935z"/>
			<path style="fill:#407BFF;" d="M272.188,343.935V165.377c0,0-47.163-28.761-129.129-16.429v185.603
				C143.059,334.551,213.714,325.905,272.188,343.935z"/>
			<path style="opacity:0.7;fill:#FFFFFF;" d="M272.188,343.935V165.377c0,0-47.163-28.761-129.129-16.429v185.603
				C143.059,334.551,213.714,325.905,272.188,343.935z"/>
			<path style="fill:#407BFF;" d="M272.188,343.861V165.304c0,0-46.843-30.29-126.797-20.628V330.28
				C145.391,330.28,215.149,323.927,272.188,343.861z"/>
			<path style="opacity:0.8;fill:#FFFFFF;" d="M272.188,343.861V165.304c0,0-46.843-30.29-126.797-20.628V330.28
				C145.391,330.28,215.149,323.927,272.188,343.861z"/>
			<path style="fill:#407BFF;" d="M272.188,343.335V164.777c0,0-45.574-31.237-124.197-23.228v185.604
				C147.991,327.153,216.099,322.221,272.188,343.335z"/>
			<path style="opacity:0.7;fill:#FFFFFF;" d="M272.188,343.335V164.777c0,0-45.574-31.237-124.197-23.228v185.604
				C147.991,327.153,216.099,322.221,272.188,343.335z"/>
			<path style="fill:#407BFF;" d="M272.188,343.935V165.377c0,0,47.971-26.516,131.347-10.265v185.603
				C403.535,340.716,331.668,328.701,272.188,343.935z"/>
			<path style="opacity:0.7;fill:#FFFFFF;" d="M272.188,343.935V165.377c0,0,47.971-26.516,131.347-10.265v185.603
				C403.535,340.716,331.668,328.701,272.188,343.935z"/>
			<path style="fill:#407BFF;" d="M272.188,343.935V165.377c0,0,47.163-28.761,129.129-16.429v185.603
				C401.317,334.551,330.662,325.905,272.188,343.935z"/>
			<path style="opacity:0.8;fill:#FFFFFF;" d="M272.188,343.935V165.377c0,0,47.163-28.761,129.129-16.429v185.603
				C401.317,334.551,330.662,325.905,272.188,343.935z"/>
			<path style="fill:#407BFF;" d="M272.188,343.861V165.304c0,0,46.843-30.29,126.797-20.628V330.28
				C398.985,330.28,329.227,323.927,272.188,343.861z"/>
			<path style="opacity:0.7;fill:#FFFFFF;" d="M272.188,343.861V165.304c0,0,46.843-30.29,126.797-20.628V330.28
				C398.985,330.28,329.227,323.927,272.188,343.861z"/>
			<path style="fill:#407BFF;" d="M272.188,343.335V164.777c0,0,45.574-31.237,124.197-23.228v185.604
				C396.385,327.153,328.277,322.221,272.188,343.335z"/>
			<path style="opacity:0.8;fill:#FFFFFF;" d="M272.188,343.335V164.777c0,0,45.574-31.237,124.197-23.228v185.604
				C396.385,327.153,328.277,322.221,272.188,343.335z"/>
		</g>
		<g>
			<path style="fill:#407BFF;" d="M309.73,276.22c-3.202-3.186-7.388-4.795-11.574-4.795c-4.186,0-8.371,1.609-11.573,4.795
				c-6.404,6.404-6.404,16.759,0,23.162l11.573,11.573l11.574-11.573C316.133,292.978,316.133,282.624,309.73,276.22z
				 M303.513,293.15c-1.483,1.468-3.42,2.218-5.357,2.218s-3.873-0.75-5.357-2.218c-2.952-2.952-2.952-7.747,0-10.699
				c1.484-1.484,3.42-2.233,5.357-2.233s3.874,0.75,5.357,2.233C306.466,285.403,306.466,290.198,303.513,293.15z"/>
			<path style="opacity:0.3;fill:#FFFFFF;" d="M292.799,282.452c-2.952,2.952-2.952,7.747,0,10.699
				c1.484,1.468,3.42,2.218,5.357,2.218v15.587l-11.573-11.573c-6.404-6.404-6.404-16.758,0-23.162
				c3.202-3.186,7.387-4.795,11.573-4.795v8.793C296.22,280.218,294.283,280.968,292.799,282.452z"/>
		</g>
		<g>
			<path style="fill:#407BFF;" d="M379.877,161.699c-3.383-3.366-7.806-5.066-12.228-5.066c-4.422,0-8.845,1.7-12.227,5.066
				c-6.766,6.766-6.766,17.706,0,24.472l12.227,12.228l12.228-12.228C386.642,179.406,386.642,168.465,379.877,161.699z
				 M373.309,179.587c-1.567,1.551-3.614,2.343-5.66,2.343c-2.046,0-4.092-0.792-5.66-2.343c-3.119-3.119-3.119-8.185,0-11.304
				c1.568-1.567,3.614-2.36,5.66-2.36c2.046,0,4.093,0.792,5.66,2.36C376.428,171.402,376.428,176.468,373.309,179.587z"/>
			<path style="opacity:0.3;fill:#FFFFFF;" d="M361.989,168.283c-3.119,3.119-3.119,8.185,0,11.304
				c1.568,1.551,3.614,2.343,5.66,2.343v16.468l-12.227-12.228c-6.766-6.765-6.766-17.706,0-24.472
				c3.383-3.366,7.805-5.066,12.227-5.066v9.29C365.603,165.924,363.557,166.716,361.989,168.283z"/>
		</g>
		
			<path style="opacity:0.4;fill:none;stroke:#000000;stroke-width:0.9724;stroke-linecap:round;stroke-linejoin:round;stroke-miterlimit:10;stroke-dasharray:1.9448,4.862;" d="
			M301.727,312.99c18.935,4.391,40.188,6.668,57.688-3.789c8.545-5.105,15.177-13.132,19.278-22.202
			c3.55-7.851,5.275-16.656,4.017-25.18c-3.258-22.081-24.245-31.201-43.727-21.879c-6.156,2.945-12.169,6.496-18.882,7.724
			c-10.017,1.833-20.846-1.927-27.099-10.046c-5.122-6.65-7.193-15.366-6.542-23.735c1.013-13.011,7.34-26.575,20.316-31.128
			c7.283-2.556,16.722-1.168,21.181,5.601c4.486,6.809,3.516,15.976,9.061,22.262c2.871,3.255,6.895,5.392,11.132,6.335
			c10.467,2.33,24.122-2.71,21.281-15.528"/>
		<g style="opacity:0.2;">
			
				<path style="fill:none;stroke:#000000;stroke-width:0.9724;stroke-linecap:round;stroke-linejoin:round;stroke-miterlimit:10;" d="
				M164.378,164.022c0,0,49.486-2.704,95.74,17.291"/>
			
				<path style="fill:none;stroke:#000000;stroke-width:0.9724;stroke-linecap:round;stroke-linejoin:round;stroke-miterlimit:10;" d="
				M164.378,184.398c0,0,49.198-3.028,95.74,16.179"/>
			
				<path style="fill:none;stroke:#000000;stroke-width:0.9724;stroke-linecap:round;stroke-linejoin:round;stroke-miterlimit:10;" d="
				M164.378,204.775c0,0,48.911-3.352,95.74,15.067"/>
			
				<path style="fill:none;stroke:#000000;stroke-width:0.9724;stroke-linecap:round;stroke-linejoin:round;stroke-miterlimit:10;" d="
				M164.378,225.15c0,0,48.624-3.676,95.74,13.955"/>
			
				<path style="fill:none;stroke:#000000;stroke-width:0.9724;stroke-linecap:round;stroke-linejoin:round;stroke-miterlimit:10;" d="
				M164.378,245.527c0,0,48.336-4,95.74,12.843"/>
			
				<path style="fill:none;stroke:#000000;stroke-width:0.9724;stroke-linecap:round;stroke-linejoin:round;stroke-miterlimit:10;" d="
				M164.378,265.903c0,0,48.049-4.324,95.74,11.731"/>
			
				<path style="fill:none;stroke:#000000;stroke-width:0.9724;stroke-linecap:round;stroke-linejoin:round;stroke-miterlimit:10;" d="
				M164.378,286.279c0,0,47.761-4.647,95.74,10.619"/>
			
				<path style="fill:none;stroke:#000000;stroke-width:0.9724;stroke-linecap:round;stroke-linejoin:round;stroke-miterlimit:10;" d="
				M164.378,306.655c0,0,47.474-4.971,95.74,9.507"/>
		</g>
		<path style="fill:#FFFFFF;" d="M189.702,218.634c0-2.663-2.159-4.822-4.822-4.822c-0.482,0-0.946,0.073-1.385,0.204
			c0.07-0.484,0.108-0.978,0.108-1.481c0-5.64-4.572-10.212-10.212-10.212c-0.643,0-1.271,0.062-1.881,0.176
			c-1.57-2.569-4.391-4.289-7.621-4.289c-4.89,0-8.856,3.929-8.929,8.801c-0.05-0.001-0.098-0.007-0.149-0.007
			c-4.543,0-8.226,3.683-8.226,8.226c0,4.543,3.683,8.226,8.226,8.226h30.21l-0.006-0.007
			C187.615,223.377,189.702,221.252,189.702,218.634z"/>
		<path style="fill:#FFFFFF;" d="M279.9,206.011c0-2.663-2.159-4.822-4.822-4.822c-0.482,0-0.946,0.073-1.385,0.204
			c0.07-0.484,0.108-0.978,0.108-1.481c0-5.64-4.572-10.212-10.212-10.212c-0.643,0-1.271,0.062-1.881,0.176
			c-1.57-2.569-4.391-4.289-7.621-4.289c-4.89,0-8.856,3.929-8.929,8.801c-0.05-0.001-0.098-0.008-0.149-0.008
			c-4.543,0-8.226,3.683-8.226,8.226c0,4.543,3.683,8.226,8.226,8.226h30.21l-0.006-0.007
			C277.813,210.754,279.9,208.629,279.9,206.011z"/>
		<path style="fill:#FFFFFF;" d="M252.641,276.883c0-2.663-2.159-4.822-4.822-4.822c-0.482,0-0.946,0.073-1.385,0.204
			c0.07-0.484,0.108-0.978,0.108-1.481c0-5.64-4.572-10.212-10.212-10.212c-0.643,0-1.271,0.062-1.881,0.176
			c-1.57-2.569-4.391-4.289-7.622-4.289c-4.889,0-8.856,3.929-8.928,8.801c-0.05-0.001-0.098-0.008-0.149-0.008
			c-4.543,0-8.226,3.683-8.226,8.226c0,4.543,3.683,8.226,8.226,8.226h30.21l-0.006-0.007
			C250.555,281.626,252.641,279.5,252.641,276.883z"/>
		<path d="M266.943,346.967c0,0,3.714,1.806,10.49,0c0,0-1.134-3.633-5.245-3.633C268.077,343.335,266.943,346.967,266.943,346.967z
			"/>
		<path style="opacity:0.5;fill:#FFFFFF;" d="M266.943,346.967c0,0,3.714,1.806,10.49,0c0,0-1.134-3.633-5.245-3.633
			C268.077,343.335,266.943,346.967,266.943,346.967z"/>
	</g>
</g>
<g id="Plant">
	<g>
		<path style="fill:#407BFF;" d="M367.281,394.033c0,0,4.75-10.364-0.677-20.581c-5.427-10.217-7.001-12.624-3.541-14.717
			s5.047,8.173,5.047,8.173s2.916-7.063,0.508-14.454c-2.408-7.392-3.918-19.431-0.629-20.722
			c3.289-1.291,0.628,15.019,3.481,20.578c0,0,2.397-6.189,2.791-12.126c0.394-5.937-0.222-15.417,2.375-17.849
			c2.597-2.432,4.261-0.749,1.708,12.353c-2.552,13.102-2.533,23.752-2.533,23.752s5.637-17.186,9.42-17.688
			c3.783-0.501,3.778,5.065,0.54,9.892c-3.238,4.827-9.483,13.476-10.507,17.926c0,0,6.187-12.934,11.753-8.97
			c5.566,3.964-4.844,11.776-9.484,14.599c-4.64,2.823-7.862,20.518-7.862,20.518L367.281,394.033z"/>
		<path style="opacity:0.2;enable-background:new    ;" d="M367.281,394.033c0,0,4.75-10.364-0.677-20.581
			c-5.427-10.217-7.001-12.624-3.541-14.717s5.047,8.173,5.047,8.173s2.916-7.063,0.508-14.454
			c-2.408-7.392-3.918-19.431-0.629-20.722c3.289-1.291,0.628,15.019,3.481,20.578c0,0,2.397-6.189,2.791-12.126
			c0.394-5.937-0.222-15.417,2.375-17.849c2.597-2.432,4.261-0.749,1.708,12.353c-2.552,13.102-2.533,23.752-2.533,23.752
			s5.637-17.186,9.42-17.688c3.783-0.501,3.778,5.065,0.54,9.892c-3.238,4.827-9.483,13.476-10.507,17.926
			c0,0,6.187-12.934,11.753-8.97c5.566,3.964-4.844,11.776-9.484,14.599c-4.64,2.823-7.862,20.518-7.862,20.518L367.281,394.033z"/>
		<path style="fill:#407BFF;" d="M371.031,398.283c0,0-4.625-10.434,0.924-20.569c5.549-10.135,7.151-12.518,3.717-14.663
			c-3.434-2.145-5.145,8.097-5.145,8.097s-2.831-7.106-0.335-14.461c2.497-7.355,4.151-19.371,0.878-20.711
			c-3.273-1.34-0.808,15.008-3.728,20.525c0,0-2.322-6.224-2.645-12.167c-0.323-5.942,0.406-15.412-2.161-17.883
			c-2.568-2.47-4.251-0.813-1.857,12.326s2.248,23.788,2.248,23.788s-5.43-17.269-9.207-17.827
			c-3.777-0.558-3.839,5.008-0.659,9.883c3.18,4.875,9.321,13.616,10.292,18.081c0,0-6.031-13.025-11.644-9.144
			c-5.613,3.881,4.703,11.847,9.308,14.739c4.606,2.892,7.615,20.633,7.615,20.633L371.031,398.283z"/>
		<g>
			<polygon style="fill:#263238;" points="349.697,390.845 387.908,390.845 384.815,418.189 352.789,418.189 			"/>
		</g>
	</g>
</g>
<g id="Plane">
	<g>
		<g>
			<path style="fill:#407BFF;" d="M214.603,188.138l-0.501,0.308l-0.828,0.514l-18.527-1.714h-0.013l6.542-5.226l13.173,4.654
				C215.097,186.899,215.187,187.779,214.603,188.138z"/>
			<path style="opacity:0.2;" d="M214.102,188.446l-0.828,0.514l-18.527-1.714l5.713-4.558l13.167,4.654
				C214.115,187.515,214.288,188.042,214.102,188.446z"/>
			<path style="fill:#407BFF;" d="M198.496,179.561l-10.92,7.106l-0.096-0.237l-6.041-14.977l2.889-1.419
				c0.032-0.019,0.064-0.032,0.103-0.045c1.329-0.604,2.902-0.372,3.999,0.61L198.496,179.561z"/>
			<path style="opacity:0.2;" d="M197.617,179.831l-10.137,6.599l-6.041-14.977l2.889-1.419c0.032-0.019,0.064-0.032,0.103-0.045
				c1.104-0.199,2.26,0.109,3.126,0.88L197.617,179.831z"/>
		</g>
		<g>
			<path style="fill:#407BFF;" d="M323.494,158.036c-0.026,0.026-0.051,0.051-0.077,0.071l-4.494,3.627h-63.241l7.98-8.005
				l6.497-6.516l6.189,0.873l46.1,6.522C324.129,154.846,324.733,156.932,323.494,158.036z"/>
			<path style="opacity:0.9;fill:#FFFFFF;" d="M297.995,161.734h-42.312l7.98-8.005l6.497-6.516l6.189,0.873
				c2.773,1.027,5.078,2.099,6.227,2.703C284.424,151.764,293.142,158.145,297.995,161.734z"/>
			<path style="opacity:0.2;" d="M323.494,158.036c-0.026,0.026-0.051,0.051-0.077,0.071l-4.494,3.627h-62.605l13.199-13.237
				l52.288,7.395C322.942,156.052,323.584,157.06,323.494,158.036z"/>
			<g>
				<path style="fill:#407BFF;" d="M292.221,155.433c0.497-0.607,0.794-1.457,0.783-2.445c-0.026-2.165-1.516-4.16-3.329-4.455
					c-0.79-0.129-1.51,0.087-2.07,0.549c-3.423,2.216-15.002,10.443-16.839,14.732c-1.155,2.695,2.922,1.249,5.741,0.679
					c2.759-0.557,10.744-5.269,15.071-8.481c0.097-0.062,0.19-0.13,0.278-0.204c0.001-0.001,0.002-0.002,0.003-0.002
					C292.003,155.697,292.122,155.571,292.221,155.433z"/>
				<path style="opacity:0.9;fill:#FFFFFF;" d="M293,152.99c0.013,0.989-0.283,1.836-0.777,2.446
					c-0.103,0.135-0.218,0.263-0.366,0.372c-0.09,0.077-0.186,0.141-0.282,0.205c-0.591,0.437-1.245,0.899-1.945,1.38
					c-4.455,3.03-10.734,6.619-13.122,7.1c-2.818,0.571-6.895,2.016-5.739-0.68c1.496-3.492,9.45-9.597,14.2-12.936
					c1.085-0.764,2.003-1.387,2.638-1.798c0.559-0.462,1.278-0.674,2.067-0.546C291.485,148.83,292.975,150.827,293,152.99z"/>
				<path style="fill:#407BFF;" d="M293,152.99c0.013,0.989-0.283,1.836-0.777,2.446c-0.103,0.135-0.218,0.263-0.366,0.372
					c-0.09,0.077-0.186,0.141-0.282,0.205c-0.591,0.437-1.245,0.899-1.945,1.38c-0.905-0.006-1.746-0.186-2.433-0.591
					c-2.382-1.399-2.677-3.974-2.228-5.925c1.085-0.764,2.003-1.387,2.638-1.798c0.559-0.462,1.278-0.674,2.067-0.546
					C291.485,148.83,292.975,150.827,293,152.99z"/>
				<path style="opacity:0.2;" d="M292.765,152.313c0.019,1.618-1.063,2.751-2.418,2.53c-1.355-0.221-2.469-1.712-2.488-3.33
					c-0.019-1.618,1.064-2.751,2.418-2.53C291.632,149.203,292.745,150.694,292.765,152.313z"/>
				<path style="fill:#407BFF;" d="M289.602,151.068c0.25-0.337,1.79-0.405,1.819,0.011c0.084,1.201-0.651,2.027-1.235,1.929
					C290.093,152.991,288.723,152.253,289.602,151.068z"/>
				<path style="opacity:0.2;" d="M271.672,165.394c-1.787,0.351,16.096-11.79,16.096-11.79s1.141,2.469,3.661,1.641
					C291.428,155.245,282.581,163.249,271.672,165.394z"/>
			</g>
			<g>
				<path style="fill:#407BFF;" d="M308.974,157.029c0.366-0.448,0.586-1.075,0.577-1.803c-0.019-1.597-1.118-3.069-2.456-3.287
					c-0.583-0.095-1.114,0.064-1.527,0.405c-2.525,1.635-11.068,7.704-12.423,10.868c-0.852,1.988,2.156,0.921,4.235,0.501
					c2.036-0.411,7.927-3.888,11.119-6.257c0.071-0.045,0.14-0.096,0.205-0.151c0.001-0.001,0.002-0.001,0.002-0.002
					C308.813,157.224,308.901,157.131,308.974,157.029z"/>
				<path style="opacity:0.9;fill:#FFFFFF;" d="M309.549,155.227c0.009,0.729-0.208,1.355-0.573,1.805
					c-0.076,0.099-0.161,0.194-0.27,0.275c-0.066,0.057-0.137,0.104-0.208,0.151c-0.436,0.322-0.919,0.663-1.435,1.018
					c-3.287,2.235-7.919,4.883-9.681,5.238c-2.079,0.421-5.087,1.487-4.234-0.502c1.104-2.576,6.972-7.081,10.477-9.544
					c0.8-0.564,1.478-1.023,1.947-1.326c0.412-0.341,0.943-0.497,1.525-0.403C308.431,152.158,309.53,153.631,309.549,155.227z"/>
				<path style="fill:#407BFF;" d="M309.549,155.227c0.009,0.729-0.208,1.355-0.573,1.805c-0.076,0.099-0.161,0.194-0.27,0.275
					c-0.066,0.057-0.137,0.104-0.208,0.151c-0.436,0.322-0.919,0.663-1.435,1.018c-0.668-0.005-1.288-0.137-1.795-0.436
					c-1.757-1.033-1.975-2.932-1.643-4.372c0.8-0.564,1.478-1.023,1.947-1.326c0.412-0.341,0.943-0.497,1.525-0.403
					C308.431,152.158,309.53,153.631,309.549,155.227z"/>
				<path style="opacity:0.2;" d="M309.375,154.727c0.014,1.194-0.785,2.03-1.784,1.866c-1-0.163-1.821-1.263-1.836-2.457
					c-0.014-1.194,0.785-2.03,1.784-1.866C308.539,152.433,309.361,153.533,309.375,154.727z"/>
				<path style="fill:#407BFF;" d="M307.042,153.809c0.184-0.248,1.321-0.299,1.342,0.008c0.062,0.886-0.48,1.495-0.911,1.423
					C307.404,155.228,306.393,154.684,307.042,153.809z"/>
				<path style="opacity:0.2;" d="M294.219,164.161c-1.284,0.253,11.569-8.474,11.569-8.474s0.82,1.775,2.631,1.18
					C308.419,156.867,302.06,162.619,294.219,164.161z"/>
			</g>
		</g>
		<g>
			<path style="fill:#407BFF;" d="M304.228,127.941c-0.199,0.719-0.571,1.579-1.22,2.523c-0.918,1.355-2.414,2.889-4.815,4.475
				c-0.36,0.238-0.732,0.481-1.091,0.719h-0.013c-1.984,1.297-3.903,2.497-5.065,3.216l-50.517,32.06
				c-8.712,5.534-18.238,9.662-28.24,12.223l-3.261,0.841l-17.224,4.423c-1.271,0.326-2.62,0.078-3.691-0.68l0,0l-2.523-1.785
				l13.616-9.63c2.626-1.855,5.322-3.621,8.07-5.283l67.741-40.983c10.098-5.675,12.897-5.45,18.668-4.481
				c3.03-0.636,5.842-0.559,7.646-0.385c0.79,0.077,1.438,0.565,1.765,1.207C304.306,126.862,304.383,127.401,304.228,127.941z"/>
			<path style="opacity:0.9;fill:#FFFFFF;" d="M304.228,127.941c-0.199,0.719-0.571,1.579-1.22,2.523
				c-0.918,1.355-2.414,2.889-4.815,4.475c-0.36,0.238-0.732,0.481-1.091,0.719h-0.013c-0.038,0.026-0.07,0.051-0.109,0.077
				c-0.006,0-0.006,0-0.006,0c-1.945,1.265-3.813,2.433-4.949,3.139l-15.131,9.604l-35.385,22.456
				c-0.289,0.186-0.578,0.366-0.873,0.546c-8.474,5.258-17.699,9.2-27.367,11.678l-3.261,0.841l-17.224,4.423
				c-1.271,0.327-2.619,0.077-3.691-0.68l-2.523-1.785l13.616-9.63c2.626-1.855,5.322-3.621,8.07-5.283l7.954-4.808l36.098-21.846
				l23.689-14.329c10.098-5.675,12.897-5.45,18.668-4.481c0.218-0.045,0.437-0.09,0.648-0.128c2.78-0.494,5.322-0.417,6.997-0.257
				c0.79,0.077,1.438,0.565,1.765,1.207C304.306,126.862,304.383,127.401,304.228,127.941z"/>
			<path style="fill:#407BFF;" d="M304.228,127.941c-0.199,0.719-0.571,1.579-1.22,2.523c-0.918,1.355-2.414,2.889-4.815,4.475
				c-0.36,0.238-0.732,0.481-1.091,0.719h-0.013c-0.038,0.026-0.07,0.051-0.109,0.077c-0.006,0-0.006,0-0.006,0
				c-2.125-0.725-3.787-2.484-3.98-5.251c-0.154-2.234,0.989-3.89,2.318-5.033c2.78-0.494,5.322-0.417,6.997-0.257
				c0.79,0.077,1.438,0.565,1.765,1.207C304.306,126.862,304.383,127.401,304.228,127.941z"/>
			<g>
				<g>
					<path style="fill:none;stroke:#263238;stroke-width:1.9259;stroke-linecap:round;stroke-linejoin:round;" d="M205.609,175.218
						c0.181-0.11,0.363-0.22,0.547-0.331"/>
					
						<path style="fill:none;stroke:#263238;stroke-width:1.9259;stroke-linecap:round;stroke-linejoin:round;stroke-dasharray:1.2666,3.1665;" d="
						M208.862,173.249c19.868-12.03,52.453-31.761,66.909-40.514"/>
					<path style="fill:none;stroke:#263238;stroke-width:1.9259;stroke-linecap:round;stroke-linejoin:round;" d="M277.127,131.914
						c0.186-0.113,0.368-0.223,0.547-0.331"/>
				</g>
			</g>
			<g>
				<path style="fill:#263238;" d="M282.594,129.729l-0.022-2.238c2.057-1.035,5.047-2.819,9.629-2.273l2.46,0.361
					c-3.876-0.315-7.764,1.544-11.092,3.559L282.594,129.729z"/>
			</g>
			<path style="opacity:0.2;" d="M304.228,127.941c-0.199,0.719-0.571,1.579-1.22,2.523c-1.406,1.046-3.191,2.247-5.251,3.55
				c-6.432,4.064-52.648,33.074-58.753,37.44c-4.442,3.171-13.956,7.967-28.998,12.544c-5.116,1.554-10.876,3.081-17.297,4.513
				c-1.227,0.274-2.515,0.01-3.541-0.716l-0.077-0.054c0,0,20.286-6.824,24.857-9.366c4.571-2.536,70.27-43.128,76.953-46.793
				c5.283-2.889,10.297-4.763,13.173-5.181C304.306,126.862,304.383,127.401,304.228,127.941z"/>
		</g>
		<g>
			<path style="fill:#407BFF;" d="M257.923,148.862l-0.295,0.193l-3.441,2.208l-14.951,9.585c-0.899,0.578-1.945,0.886-3.011,0.886
				h-70.713l2.632-2.883c2.24-2.446,5.309-3.974,8.615-4.275l61.327-5.604l19.272-1.759
				C258.296,147.123,258.719,148.355,257.923,148.862z"/>
			<path style="opacity:0.9;fill:#FFFFFF;" d="M257.923,148.862l-0.295,0.193l-3.441,2.208l-14.951,9.585
				c-0.899,0.578-1.945,0.886-3.011,0.886h-48.591c16.595-3.139,42.441-8.5,50.452-12.762l19.272-1.759
				C258.296,147.123,258.719,148.355,257.923,148.862z"/>
			<path style="opacity:0.2;" d="M257.628,149.055l-18.392,11.793c-0.899,0.578-1.945,0.886-3.011,0.886h-70.18l1.457-1.598
				c2.24-2.446,5.309-3.974,8.615-4.276l80.599-7.363C257.166,148.458,257.493,148.715,257.628,149.055z"/>
			<g>
				<path style="fill:#407BFF;" d="M234.407,155.429c0.497-0.607,0.794-1.457,0.783-2.445c-0.026-2.165-1.516-4.16-3.329-4.455
					c-0.79-0.129-1.51,0.087-2.07,0.549c-3.423,2.216-15.002,10.443-16.839,14.732c-1.155,2.695,2.922,1.249,5.741,0.679
					c2.759-0.557,10.744-5.27,15.071-8.481c0.097-0.062,0.189-0.13,0.278-0.204c0.001-0.001,0.002-0.001,0.003-0.002
					C234.19,155.693,234.308,155.567,234.407,155.429z"/>
				<path style="opacity:0.9;fill:#FFFFFF;" d="M235.187,152.986c0.013,0.989-0.282,1.836-0.777,2.446
					c-0.103,0.135-0.218,0.263-0.366,0.372c-0.09,0.077-0.186,0.141-0.282,0.205c-0.591,0.437-1.245,0.899-1.945,1.38
					c-4.455,3.03-10.734,6.619-13.122,7.1c-2.818,0.571-6.895,2.016-5.739-0.68c1.496-3.492,9.45-9.598,14.2-12.936
					c1.085-0.764,2.003-1.387,2.638-1.798c0.559-0.462,1.278-0.674,2.067-0.546C233.672,148.827,235.161,150.823,235.187,152.986z"
					/>
				<path style="fill:#407BFF;" d="M235.187,152.986c0.013,0.989-0.282,1.836-0.777,2.446c-0.103,0.135-0.218,0.263-0.366,0.372
					c-0.09,0.077-0.186,0.141-0.282,0.205c-0.591,0.437-1.245,0.899-1.945,1.38c-0.905-0.006-1.746-0.186-2.433-0.591
					c-2.382-1.4-2.677-3.974-2.228-5.925c1.085-0.764,2.003-1.387,2.638-1.798c0.559-0.462,1.278-0.674,2.067-0.546
					C233.672,148.827,235.161,150.823,235.187,152.986z"/>
				<path style="opacity:0.2;" d="M234.951,152.309c0.019,1.618-1.063,2.751-2.418,2.53c-1.355-0.221-2.469-1.712-2.488-3.33
					c-0.019-1.618,1.064-2.751,2.418-2.53C233.818,149.2,234.932,150.691,234.951,152.309z"/>
				<path style="fill:#407BFF;" d="M231.789,151.064c0.25-0.337,1.79-0.405,1.819,0.011c0.084,1.201-0.651,2.027-1.235,1.929
					C232.279,152.988,230.909,152.25,231.789,151.064z"/>
				<path style="opacity:0.2;" d="M213.858,165.39c-1.787,0.351,16.096-11.79,16.096-11.79s1.141,2.469,3.661,1.641
					C233.615,155.242,224.768,163.245,213.858,165.39z"/>
			</g>
			<g>
				<path style="fill:#407BFF;" d="M206.194,157.029c0.367-0.448,0.586-1.075,0.577-1.803c-0.019-1.597-1.118-3.069-2.456-3.287
					c-0.583-0.095-1.114,0.064-1.527,0.405c-2.525,1.635-11.068,7.704-12.423,10.868c-0.852,1.988,2.156,0.921,4.235,0.501
					c2.036-0.411,7.927-3.888,11.119-6.257c0.071-0.045,0.14-0.096,0.205-0.151c0.001-0.001,0.001-0.001,0.002-0.002
					C206.033,157.224,206.121,157.131,206.194,157.029z"/>
				<path style="opacity:0.9;fill:#FFFFFF;" d="M206.769,155.227c0.009,0.729-0.208,1.355-0.573,1.805
					c-0.076,0.099-0.161,0.194-0.27,0.275c-0.066,0.057-0.137,0.104-0.208,0.151c-0.436,0.322-0.919,0.663-1.435,1.018
					c-3.287,2.235-7.919,4.883-9.681,5.238c-2.079,0.421-5.087,1.487-4.234-0.502c1.104-2.576,6.972-7.081,10.477-9.544
					c0.8-0.564,1.478-1.023,1.947-1.326c0.412-0.341,0.943-0.497,1.525-0.403C205.651,152.158,206.75,153.631,206.769,155.227z"/>
				<path style="fill:#407BFF;" d="M206.769,155.227c0.009,0.729-0.208,1.355-0.573,1.805c-0.076,0.099-0.161,0.194-0.27,0.275
					c-0.066,0.057-0.137,0.104-0.208,0.151c-0.436,0.322-0.919,0.663-1.435,1.018c-0.668-0.005-1.288-0.137-1.795-0.436
					c-1.757-1.033-1.975-2.932-1.643-4.372c0.8-0.564,1.478-1.023,1.947-1.326c0.412-0.341,0.943-0.497,1.525-0.403
					C205.651,152.158,206.75,153.631,206.769,155.227z"/>
				<path style="opacity:0.2;" d="M206.595,154.727c0.014,1.194-0.785,2.03-1.784,1.866c-1-0.163-1.821-1.263-1.836-2.457
					c-0.014-1.194,0.785-2.03,1.784-1.866C205.759,152.433,206.581,153.533,206.595,154.727z"/>
				<path style="fill:#407BFF;" d="M204.262,153.809c0.184-0.248,1.321-0.299,1.342,0.008c0.062,0.886-0.48,1.495-0.911,1.423
					C204.624,155.228,203.613,154.684,204.262,153.809z"/>
				<path style="opacity:0.2;" d="M191.439,164.161c-1.284,0.253,11.569-8.474,11.569-8.474s0.82,1.775,2.631,1.18
					C205.639,156.867,199.28,162.619,191.439,164.161z"/>
			</g>
		</g>
		<g>
			<path style="fill:#407BFF;" d="M167.125,189.034l23.092-1.676l11.062-5.34l-29.199,3.553c-1.018,0.124-1.968,0.576-2.705,1.289
				L167.125,189.034z"/>
			<path style="fill:#407BFF;" d="M198.201,183.484c-0.032,0.032-0.07,0.058-0.115,0.077l-7.871,3.8l-22.071,1.598l-1.021,0.077
				l2.253-2.176c0.738-0.713,1.689-1.162,2.703-1.29l25.679-3.12C198.374,182.373,198.644,183.15,198.201,183.484z"/>
			<path style="opacity:0.2;" d="M198.201,183.484c-0.032,0.032-0.07,0.058-0.115,0.077l-7.871,3.8l-22.071,1.598l1.232-1.181
				c0.738-0.713,1.689-1.168,2.703-1.29l25.679-3.126C197.938,183.342,198.092,183.394,198.201,183.484z"/>
		</g>
	</g>
</g>
<g id="Character">
	<g>
		
			<rect x="153.359" y="271.207" style="fill:none;stroke:#263238;stroke-width:2.9172;stroke-miterlimit:10;" width="12.242" height="55.19"/>
		<g>
			<path style="fill:#263238;" d="M155.878,410.41c-0.338,0-1.608,0-1.946,0c-2.188,0-3.961,1.702-3.961,3.89s1.773,3.89,3.961,3.89
				c0.338,0,1.608,0,1.946,0c2.188,0,3.961-1.702,3.961-3.89S158.066,410.41,155.878,410.41z"/>
			<path style="opacity:0.1;fill:#FFFFFF;enable-background:new    ;" d="M159.839,414.228c0,2.188-1.773,3.961-3.961,3.961
				c-2.188,0-3.961-1.773-3.961-3.961c0-2.188,1.773-3.961,3.961-3.961C158.066,410.267,159.839,412.04,159.839,414.228z"/>
		</g>
		<g>
			<path style="fill:#263238;" d="M166.575,410.41c-0.338,0-1.608,0-1.946,0c-2.188,0-3.961,1.702-3.961,3.89s1.773,3.89,3.961,3.89
				c0.338,0,1.608,0,1.946,0c2.188,0,3.961-1.702,3.961-3.89S168.762,410.41,166.575,410.41z"/>
			<path style="opacity:0.2;fill:#FFFFFF;enable-background:new    ;" d="M170.536,414.228c0,2.188-1.773,3.961-3.961,3.961
				s-3.961-1.773-3.961-3.961c0-2.188,1.773-3.961,3.961-3.961S170.536,412.04,170.536,414.228z"/>
		</g>
		<path style="fill:#407BFF;" d="M202.223,328.585v68.797c0,6.846-5.552,13.028-12.398,13.028h-34.277v-94.323h34.277
			c4.755,0,8.888,2.734,10.969,6.662C201.707,324.48,202.223,326.494,202.223,328.585z"/>
		<path style="fill:#263238;" d="M168.266,411.717H153.09c-1.447,0-2.62-1.173-2.62-2.619v-92.152c0-1.447,1.173-2.619,2.62-2.619
			h15.176c1.447,0,2.619,1.173,2.619,2.619v92.152C170.886,410.544,169.713,411.717,168.266,411.717z"/>
		<path style="opacity:0.2;fill:#FFFFFF;enable-background:new    ;" d="M160.707,411.717h-7.617c-1.447,0-2.62-1.173-2.62-2.619
			v-92.152c0-1.447,1.173-2.619,2.62-2.619h7.617c1.447,0,2.619,1.173,2.619,2.619v92.152
			C163.327,410.544,162.154,411.717,160.707,411.717z"/>
		<path style="opacity:0.2;enable-background:new    ;" d="M202.223,328.585v68.797c0,6.846-5.552,13.028-12.398,13.028h-13.769
			c-0.525-0.972-1.06-2.72-1.06-3.897v-76.81c0-3.812,3.335-6.81,7.147-6.81h18.65C201.707,324.839,202.223,326.494,202.223,328.585
			z"/>
		<path style="opacity:0.2;enable-background:new    ;" d="M158.863,409.247h-5.131c-1.003,0-1.815-0.813-1.815-1.815v-88.7
			c0-1.003,0.813-1.815,1.815-1.815h5.131c1.003,0,1.815,0.813,1.815,1.815v88.7C160.678,408.434,159.866,409.247,158.863,409.247z"
			/>
		<path style="fill:#263238;" d="M165.758,273.031h-12.763c-1.074,0-1.945-0.871-1.945-1.945v-1.215
			c0-1.074,0.871-1.945,1.945-1.945h12.763c1.074,0,1.945,0.871,1.945,1.945v1.215C167.702,272.16,166.832,273.031,165.758,273.031z
			"/>
		<path style="opacity:0.2;fill:#FFFFFF;enable-background:new    ;" d="M165.758,273.031h-12.763c-1.074,0-1.945-0.871-1.945-1.945
			v-1.215c0-1.074,0.871-1.945,1.945-1.945h12.763c1.074,0,1.945,0.871,1.945,1.945v1.215
			C167.702,272.16,166.832,273.031,165.758,273.031z"/>
		<path style="opacity:0.2;enable-background:new    ;" d="M165.758,273.031h-1.087c-1.074,0-1.945-0.871-1.945-1.945v-1.215
			c0-1.074,0.871-1.945,1.945-1.945h1.087c1.074,0,1.945,0.871,1.945,1.945v1.215C167.702,272.16,166.832,273.031,165.758,273.031z"
			/>
	</g>
	<g>
		<g>
			<path style="fill:#263238;" d="M122.125,212.79c-9.684-1.265-19.064-3.055-19.064-3.055l-0.814,0.933
				c0,0-16.875,3.358-19.497,6.435s-1.853,16.477-1.853,16.477l1.093,0.942c0,0-0.323,28.446,3.331,33.403
				c3.654,4.957,19.875,5.58,32.25,2.191C129.944,266.727,131.809,214.054,122.125,212.79z"/>
			<path style="opacity:0.4;fill:#FFFFFF;" d="M117.57,270.113c-2.023,0.554-4.152,1.002-6.301,1.332
				c-11.046,1.741-22.89,0.632-25.953-3.52c-3.646-4.959-3.326-33.402-3.326-33.402l-1.089-0.943c0,0-0.778-13.4,1.848-16.472
				c2.178-2.557,14.187-5.309,18.194-6.165c0.817-0.175,1.303-0.272,1.303-0.272l0.817-0.934c0,0,9.374,1.789,19.059,3.053
				C131.806,214.054,129.939,266.729,117.57,270.113z"/>
			<path style="opacity:0.2;" d="M117.57,270.113c-2.023,0.554-4.152,1.002-6.301,1.332c-7.546-0.146-14.323-1.167-15.51-3.52
				c-2.1-4.201,0.399-21.325-1.215-33.402c-1.614-12.077,1.099-21.266,6.418-23.474l-0.02-0.107
				c0.817-0.175,1.303-0.272,1.303-0.272l0.817-0.934c0,0,9.374,1.789,19.059,3.053C131.806,214.054,129.939,266.729,117.57,270.113
				z"/>
		</g>
		<path style="fill:#CE7A63;" d="M154.45,260.852l7.003,2.981l4.059,4.847l-5.315,1.437l-2.863-1.815c0,0-4.99-0.162-6.284-4.119
			L154.45,260.852z"/>
		<path style="fill:#407BFF;" d="M151.682,265.484c-1.225-0.613-6.437-4.026-11.426-7.614c-4.444-3.19-8.703-6.515-9.84-8.139
			c-1.41-2.013-2.995-8.022-4.201-14.304c-1.527-7.828-2.46-16.064-1.76-17.455c1.255-2.499,5.961-3.919,5.961-3.919
			c5.679,3.345,8.372,25.399,9.529,29.571c0,0,15.403,15.082,15.977,16.813C156.495,262.168,151.682,265.484,151.682,265.484z"/>
		<path style="opacity:0.4;fill:#FFFFFF;" d="M151.682,265.484c-1.225-0.613-6.437-4.026-11.426-7.614
			c-4.444-3.19-8.703-6.515-9.84-8.139c-1.41-2.013-2.995-8.022-4.201-14.304c-1.527-7.828-2.46-16.064-1.76-17.455
			c1.255-2.499,5.961-3.919,5.961-3.919c5.679,3.345,8.372,25.399,9.529,29.571c0,0,15.403,15.082,15.977,16.813
			C156.495,262.168,151.682,265.484,151.682,265.484z"/>
		<path style="fill:#407BFF;" d="M163.006,418.184c-5.919,0-6.702-0.091-10.027-0.203c-2.848-0.102-3.529,0.254-5.818,0.203
			c-1.912-0.041-1.841-1.871-1.251-3.977c0.295-1.057,0.75-3.293,1.156-5.001l8.672-0.63c1.22,2.329,3.974,5.651,7.31,6.1
			C166.232,415.103,165.366,418.184,163.006,418.184z"/>
		<path style="fill:#407BFF;" d="M119.22,418.184c-5.919,0-6.701-0.091-10.027-0.203c-2.848-0.102-3.529,0.254-5.818,0.203
			c-1.912-0.041-1.841-1.871-1.251-3.977c0.295-1.057,0.75-3.293,1.156-5.001l8.672-0.63c1.221,2.329,3.974,5.651,7.31,6.1
			C122.446,415.103,121.58,418.184,119.22,418.184z"/>
		<path style="opacity:0.4;fill:#FFFFFF;" d="M163.006,418.184c-5.919,0-6.702-0.091-10.027-0.203
			c-2.848-0.102-3.529,0.254-5.818,0.203c-1.912-0.041-1.841-1.871-1.251-3.977c0.295-1.057,0.75-3.293,1.156-5.001l8.672-0.63
			c1.22,2.329,3.974,5.651,7.31,6.1C166.232,415.103,165.366,418.184,163.006,418.184z"/>
		<path style="opacity:0.4;fill:#FFFFFF;" d="M119.22,418.184c-5.919,0-6.701-0.091-10.027-0.203
			c-2.848-0.102-3.529,0.254-5.818,0.203c-1.912-0.041-1.841-1.871-1.251-3.977c0.295-1.057,0.75-3.293,1.156-5.001l8.672-0.63
			c1.221,2.329,3.974,5.651,7.31,6.1C122.446,415.103,121.58,418.184,119.22,418.184z"/>
		<path style="opacity:0.2;" d="M140.256,257.87c-4.444-3.19-8.703-6.515-9.84-8.139c-1.41-2.013-2.995-8.022-4.201-14.304
			c1.634-3.306,2.878-5.514,2.878-5.514S136.454,239.657,140.256,257.87z"/>
		<g>
			<path style="fill:#407BFF;" d="M101.555,173.065c-3.029-3.982-7.213-5.652-12.406-2.959c-5.193,2.693-5.218,7.862-2.513,13.163
				c2.705,5.301-5.369,7.095-3.642,12.395c0.682,2.092,2.199,2.646,2.239,6.178c0.024,2.108-2.764,5.733-0.948,7.117
				c2.326,1.772,9.905-1.854,8.539-5.351c-1.366-3.497,4.017-3.048,4.212-6.412c0.211-3.629-2.38-4.835-1.385-7.518
				c1.158-3.127,4.442-3.012,5.906-7.477C102.809,178.376,102.528,174.345,101.555,173.065z"/>
			<path style="opacity:0.5;" d="M101.555,173.065c-3.029-3.982-7.213-5.652-12.406-2.959c-5.193,2.693-5.218,7.862-2.513,13.163
				c2.705,5.301-5.369,7.095-3.642,12.395c0.682,2.092,2.199,2.646,2.239,6.178c0.024,2.108-2.764,5.733-0.948,7.117
				c2.326,1.772,9.905-1.854,8.539-5.351c-1.366-3.497,4.017-3.048,4.212-6.412c0.211-3.629-2.38-4.835-1.385-7.518
				c1.158-3.127,4.442-3.012,5.906-7.477C102.809,178.376,102.528,174.345,101.555,173.065z"/>
		</g>
		<g>
			<path style="fill:#263238;" d="M133.79,258.561c0,0,7.658,46.16,8.922,69.973c1.328,25.009,9.346,65.063,13.585,80.713
				c-1.193,1.072-6.799,1.519-9.45,0.196c0,0-23.136-46.194-20.127-75.073c-19.344-54.469-14.665-74.846-14.665-74.846
				L133.79,258.561z"/>
		</g>
		<path style="opacity:0.2;" d="M120.993,317.038c-2.752-9.073-4.735-16.93-6.136-23.668c1.391-5.27,3.365-9.782,6.048-12.495
			C120.906,280.874,124.766,295.557,120.993,317.038z"/>
		<g>
			<path style="fill:#263238;" d="M125.504,256.142c0,0-6.329,48.974-9.956,72.543c-3.809,24.753-4.293,64.47-3.341,80.656
				c-1.387,0.805-6.441,1.78-9.172,0.926c0,0-12.907-50.061-4.334-79.137c-7.807-57.272,3.491-71.297,3.491-71.297L125.504,256.142z
				"/>
		</g>
		<path style="fill:#407BFF;" d="M134.211,253.235c0.347-7.167,0.495-12.203,0.52-17.294c0.179-7.509-0.295-9.886-0.499-13.022
			c-0.366-5.621-4.771-11.97-10.433-12.56c-1.569-0.163-3.209-0.306-4.79-0.395c-4.771-0.269-9.155,0.053-14.5,0.495
			c-1.375,0.114-2.713,0.266-3.974,0.438c-4.718,0.642-7.529,5.25-6.039,9.897c4.584,14.301,6.608,23.596,7.271,31.025
			c-0.814,2.276-5.109,14.579-3.352,15.975c1.938,1.539,34.223,2.693,36.723,0C137.078,265.704,135.165,257.019,134.211,253.235z"/>
		<path style="opacity:0.4;fill:#FFFFFF;" d="M135.141,267.798c-2.509,2.684-34.793,1.536-36.728,0
			c-1.76-1.4,2.538-13.701,3.355-15.977c-0.321-3.549-0.943-7.536-2.023-12.281c-0.758-3.374-1.741-7.147-3.005-11.426
			c-0.671-2.285-1.42-4.726-2.246-7.322c-1.488-4.648,1.323-9.257,6.039-9.899c1.264-0.165,2.596-0.321,3.977-0.438
			c5.338-0.438,9.724-0.758,14.499-0.496c1.575,0.088,3.218,0.233,4.784,0.399c5.669,0.593,10.074,6.943,10.434,12.563
			c0.204,3.131,0.681,5.514,0.506,13.02c-0.029,5.086-0.175,10.123-0.525,17.289C135.161,257.014,137.077,265.708,135.141,267.798z"
			/>
		<g>
			<path style="fill:#263238;" d="M106.478,231.345c0,0-2.212,11.199-7.117,18.39l1.037,1.722c0,0,5.022-6.241,8.004-20.112H106.478
				z"/>
			<path style="opacity:0.2;fill:#FFFFFF;" d="M106.478,231.345c0,0-2.212,11.199-7.117,18.39l1.037,1.722
				c0,0,5.022-6.241,8.004-20.112H106.478z"/>
			<path style="fill:#263238;" d="M97.245,211.63c0,0,9.36,3.383,8.307,19.915c-0.069,1.086,0.787,2.012,1.876,2.012l0,0
				c0.869,0,1.63-0.592,1.831-1.438c1.022-4.3,3.139-17.088-6.199-22.384C103.061,209.735,98.123,210.371,97.245,211.63z"/>
		</g>
		<g>
			<path style="fill:#263238;" d="M132.829,231.345c0,0,0.649,8.004,1.671,15.206l0.701-1.335c0,0-0.431-6.786-0.898-13.871H132.829
				z"/>
			<path style="opacity:0.2;fill:#FFFFFF;" d="M132.829,231.345c0,0,0.649,8.004,1.671,15.206l0.701-1.335
				c0,0-0.431-6.786-0.898-13.871H132.829z"/>
			<path style="fill:#263238;" d="M123.394,210.317c0,0,7.354,4.937,8.858,21.303c0.061,0.66,0.606,1.173,1.269,1.173l0,0
				c0.707,0,1.277-0.57,1.276-1.277c-0.005-3.363-0.522-12.665-5.715-19.406C129.082,212.111,125.018,209.486,123.394,210.317z"/>
		</g>
		<g style="opacity:0.2;">
			<path d="M124.857,268.422c-0.023,0-0.047-0.003-0.07-0.01c-0.129-0.038-0.202-0.174-0.163-0.302
				c1.615-5.39-1.115-13.694-1.143-13.778c-0.011-0.034-0.015-0.07-0.01-0.105c0.018-0.154,1.8-15.456,0.001-26.656
				c-1.352-8.417-4.35-12.282-4.38-12.32c-0.084-0.105-0.066-0.258,0.039-0.341c0.105-0.083,0.258-0.067,0.341,0.039
				c0.126,0.159,3.105,3.988,4.48,12.545c1.756,10.932,0.123,25.723,0.008,26.736c0.255,0.781,2.74,8.649,1.13,14.019
				C125.058,268.353,124.962,268.422,124.857,268.422z"/>
		</g>
		<path style="fill:#407BFF;" d="M103.881,204.994c0,0,10.002,2.693,16.638,0.866c6.636-1.827,4.135,9.04-2.02,8.848
			C112.344,214.515,100.227,207.975,103.881,204.994z"/>
		<path style="fill:#CE7A63;" d="M104.967,194.096c1.422,4.623,3.263,13.118,0.337,16.335c0,0,4.397-0.814,13.977,4.668
			c2.584-3.989,0.523-5.162,0.523-5.162c-5.338-1.062-5.623-4.916-5.111-8.563L104.967,194.096z"/>
		<path style="opacity:0.2;" d="M108.933,197.065l5.757,4.304c-0.124,0.863-0.199,1.737-0.167,2.583
			c-2.019-0.219-4.986-2.302-5.423-4.37C108.881,198.55,108.816,197.553,108.933,197.065z"/>
		<g>
			<path style="fill:#CE7A63;" d="M100.663,184.868c1.673,7.485,2.222,10.68,6.644,14.147c6.652,5.214,15.438,2.036,16.024-5.674
				c0.528-6.939-2.296-18.014-10.144-20.236C105.456,170.915,98.991,177.383,100.663,184.868z"/>
			<g>
				<path style="fill:#407BFF;" d="M111.132,169.391c5.565,0.687,13.08,6.818,5.815,7.462c-0.211,2.286-4.395,1.962-7.337,0.507
					c0.295,1.712-2.797,4.802-6.527,3.47c2.1,1.378,1.796,7.121-0.894,7.239c-2.69,0.117-8.406,1.155-6.739-8.181
					C97.116,170.55,105.185,168.657,111.132,169.391z"/>
				<path style="opacity:0.5;" d="M111.132,169.391c5.565,0.687,13.08,6.818,5.815,7.462c-0.211,2.286-4.395,1.962-7.337,0.507
					c0.295,1.712-2.797,4.802-6.527,3.47c2.1,1.378,1.796,7.121-0.894,7.239c-2.69,0.117-8.406,1.155-6.739-8.181
					C97.116,170.55,105.185,168.657,111.132,169.391z"/>
			</g>
			<path style="fill:#263238;" d="M110.327,185.794c0.113,0.634,0.535,1.113,0.942,1.069c0.407-0.044,0.645-0.594,0.532-1.228
				c-0.113-0.634-0.535-1.113-0.942-1.069C110.453,184.61,110.214,185.16,110.327,185.794z"/>
			<path style="fill:#263238;" d="M118.228,184.694c0.113,0.634,0.535,1.113,0.942,1.069c0.407-0.044,0.645-0.594,0.532-1.228
				c-0.113-0.634-0.535-1.113-0.942-1.069C118.353,183.51,118.115,184.059,118.228,184.694z"/>
			<path style="fill:#263238;" d="M118.587,183.52l1.418-0.601C120.005,182.919,119.449,184.192,118.587,183.52z"/>
			<path style="fill:#BA4D3C;" d="M116.057,186.349c0,0,1.544,2.616,2.943,3.808c-0.683,0.87-2.145,0.665-2.145,0.665
				L116.057,186.349z"/>
			<path style="fill:#263238;" d="M113.693,193.553c0.333,0.023,0.687,0.019,1.061-0.021c0.101-0.011,0.168-0.103,0.149-0.206
				c-0.018-0.102-0.112-0.177-0.216-0.166c-2.731,0.297-4.357-1.511-4.373-1.529c-0.07-0.081-0.188-0.093-0.263-0.027
				c-0.075,0.065-0.078,0.183-0.008,0.263C110.106,191.937,111.414,193.394,113.693,193.553z"/>
			<path style="fill:#CE7A63;" d="M99.17,191.337c1.095,1.438,2.675,2.226,4.052,2.388c2.07,0.244,2.665-1.846,1.721-3.767
				c-0.85-1.729-2.951-3.938-4.851-3.292C98.219,187.303,97.917,189.693,99.17,191.337z"/>
			<path style="fill:#263238;" d="M108.448,181.946c0.098-0.002,0.192-0.043,0.258-0.121c1.027-1.231,2.39-1.022,2.406-1.019
				c0.202,0.032,0.385-0.104,0.404-0.309c0.019-0.204-0.132-0.397-0.337-0.431c-0.071-0.011-1.782-0.276-3.057,1.253
				c-0.127,0.152-0.099,0.389,0.062,0.529C108.261,181.915,108.356,181.947,108.448,181.946z"/>
			<path style="fill:#263238;" d="M120.733,180.167c0.092,0.01,0.186-0.014,0.26-0.074c0.153-0.126,0.167-0.361,0.031-0.525
				c-1.366-1.646-3.066-1.537-3.138-1.532c-0.203,0.016-0.343,0.195-0.313,0.401c0.03,0.206,0.219,0.36,0.422,0.346
				c0.066-0.005,1.387-0.07,2.473,1.239C120.539,180.107,120.635,180.156,120.733,180.167z"/>
			<path style="fill:#263238;" d="M110.686,184.621l1.418-0.601C112.104,184.02,111.549,185.293,110.686,184.621z"/>
		</g>
		<path style="fill:#407BFF;" d="M119.282,215.098c0,0-14.92-14.817-22.421-9.624c-4.273,2.958-1.731,6.155,0.385,6.155
			c2.15,0,5.001-0.962,5.001-0.962S107.273,214.144,119.282,215.098z"/>
		<path style="fill:#407BFF;" d="M119.282,215.098c0,0,2.68-5.969,1.429-8.374c-1.25-2.404,6.828-2.116,7.405,2.693
			C128.693,214.226,119.282,215.098,119.282,215.098z"/>
		<path style="opacity:0.2;fill:#FFFFFF;" d="M119.282,215.098c0,0-14.92-14.817-22.421-9.624c-4.273,2.958-1.731,6.155,0.385,6.155
			c2.15,0,5.001-0.962,5.001-0.962S107.273,214.144,119.282,215.098z"/>
		<path style="opacity:0.2;fill:#FFFFFF;" d="M119.282,215.098c0,0,2.68-5.969,1.429-8.374c-1.25-2.404,6.828-2.116,7.405,2.693
			C128.693,214.226,119.282,215.098,119.282,215.098z"/>
		<g>
			<path style="fill:#407BFF;" d="M126.348,241.285l-11.241,22.044l-13.944-5.65l0.078-0.146l-1.118-1.293l-0.788-0.301
				l11.756-22.783c0,0,12.213,5.037,13.526,5.805C125.921,239.729,126.348,241.285,126.348,241.285z"/>
			<path style="opacity:0.4;" d="M126.348,241.285l-11.241,22.044l-13.944-5.65l0.078-0.146l-1.118-1.293l-0.788-0.301
				l11.756-22.783c0,0,12.213,5.037,13.526,5.805c0.068,0.039,0.136,0.088,0.194,0.136
				C125.959,239.885,126.348,241.285,126.348,241.285z"/>
			<path style="opacity:0.2;" d="M126.348,241.285l-11.241,22.044l-13.944-5.65l0.078-0.146l-1.118-1.293l13.711,5.144
				l10.978-22.287C125.959,239.885,126.348,241.285,126.348,241.285z"/>
			<path style="opacity:0.6;fill:#FFFFFF;" d="M114.611,262.979l-13.371-5.445l-1.118-1.293l13.672,5.27
				C114.796,262.376,114.611,262.979,114.611,262.979z"/>
			<g>
				<polygon style="fill:#FFFFFF;" points="107.685,251.875 118.486,235.266 123.975,238.578 113.419,255.067 				"/>
				<polygon style="opacity:0.1;" points="107.685,251.875 118.486,235.266 123.975,238.578 113.419,255.067 				"/>
				<polygon style="fill:#FFFFFF;" points="107.825,251.801 117.519,234.522 123.213,237.468 113.756,254.612 				"/>
				<polygon style="fill:#407BFF;" points="109.065,251.16 113.243,238.625 122.604,240.869 118.756,253.454 				"/>
				<g>
					<path style="fill:none;stroke:#FFFFFF;stroke-width:0.2431;stroke-miterlimit:10;" d="M118.542,246.46
						c-0.431,1.46-1.968,2.352-3.433,1.993c-1.465-0.359-2.303-1.834-1.872-3.293c0.431-1.46,1.968-2.352,3.433-1.993
						C118.135,243.525,118.973,245,118.542,246.46z"/>
					
						<line style="fill:none;stroke:#FFFFFF;stroke-width:0.2431;stroke-miterlimit:10;" x1="116.67" y1="243.166" x2="115.108" y2="248.452"/>
					<path style="fill:none;stroke:#FFFFFF;stroke-width:0.2582;stroke-miterlimit:10;" d="M117.385,246.176
						c-0.431,1.46-1.45,2.479-2.277,2.276c-0.826-0.203-1.147-1.55-0.715-3.01c0.431-1.46,1.45-2.479,2.277-2.276
						C117.496,243.369,117.816,244.716,117.385,246.176z"/>
					
						<line style="fill:none;stroke:#FFFFFF;stroke-width:0.2582;stroke-miterlimit:10;" x1="113.236" y1="245.159" x2="118.542" y2="246.46"/>
				</g>
			</g>
		</g>
		<path style="fill:#CE7A63;" d="M121.573,251.265l-1.427-1.91c-0.537-0.718-1.388-1.132-2.284-1.112l-4.189,0.094
			c-1.675,0.038-3.227,0.884-4.166,2.271l-0.581,0.859c2.151,3.329,6.927,5.342,6.927,5.342l1.298,0.725
			c1.156,0.645,2.54,0.288,3.178-0.821l1.47-2.553C122.305,253.277,122.216,252.125,121.573,251.265z"/>
		<path style="opacity:0.2;" d="M99.746,239.54c-0.758-3.374-1.741-7.147-3.005-11.426c1.04-0.788,2.275-0.827,3.656,0.34
			C100.397,228.455,101.263,234.484,99.746,239.54z"/>
		<path style="fill:#407BFF;" d="M97.102,212.876c-3.145-1.785-16.692,24.703-14.961,33.724c1.731,9.021,29.592,7.704,29.592,7.704
			s1.719-3.787,1.259-6.14c0,0-12.962-5.215-18.925-6.476l6.999-13.187C101.065,228.5,102.446,215.908,97.102,212.876z"/>
		<path style="opacity:0.4;fill:#FFFFFF;" d="M97.102,212.876c-3.145-1.785-16.692,24.703-14.961,33.724
			c1.731,9.021,29.592,7.704,29.592,7.704s1.719-3.787,1.259-6.14c0,0-12.962-5.215-18.925-6.476l6.999-13.187
			C101.065,228.5,102.446,215.908,97.102,212.876z"/>
	</g>
</g>
<g id="Speech_bubble">
	<g>
		<g>
			<path style="fill:#407BFF;" d="M135.836,127.507c0-14.629-11.859-26.489-26.489-26.489c-14.629,0-26.488,11.859-26.488,26.489
				c0,13.619,10.28,24.832,23.503,26.317l2.986,10.003l2.985-10.003C125.556,152.34,135.836,141.126,135.836,127.507z"/>
			<path style="opacity:0.8;fill:#FFFFFF;" d="M135.836,127.507c0-14.629-11.859-26.489-26.489-26.489
				c-14.629,0-26.488,11.859-26.488,26.489c0,13.619,10.28,24.832,23.503,26.317l2.986,10.003l2.985-10.003
				C125.556,152.34,135.836,141.126,135.836,127.507z"/>
		</g>
		<g>
			<path style="fill:#407BFF;" d="M120.171,121.746v14.932c0,1.309-4.847,2.371-10.819,2.371c-5.983,0-10.819-1.061-10.819-2.371
				v-14.932H120.171z"/>
			<polygon style="opacity:0.2;" points="120.171,121.746 120.171,127.089 109.352,130.734 98.533,127.089 98.533,121.746 			"/>
			<polygon style="fill:#407BFF;" points="109.347,115.106 89.673,121.742 109.347,128.378 129.022,121.742 			"/>
			
				<polyline style="fill:none;stroke:#263238;stroke-width:0.8434;stroke-linecap:round;stroke-linejoin:round;stroke-miterlimit:10;" points="
				122.025,132.904 122.025,124.105 109.352,119.824 			"/>
			<path style="fill:#263238;" d="M122.026,132.009c-0.4,0-0.725,0.357-0.725,0.797l0,1.886h1.449v-1.886
				C122.75,132.365,122.426,132.009,122.026,132.009z"/>
		</g>
	</g>
</g>
</svg>
